<svg width="16" height="16" viewBox="0 0 16 16" fill="none" xmlns="http://www.w3.org/2000/svg">
<path d="M14.6668 12.6667V14.6667H1.3335V12.6667C1.3335 12.3 1.6335 12 2.00016 12H14.0002C14.3668 12 14.6668 12.3 14.6668 12.6667Z" fill="#FDD2BE" stroke="#FDD2BE" stroke-width="1.5" stroke-miterlimit="10" stroke-linecap="round" stroke-linejoin="round"/>
<path d="M4.66683 7.3335H3.3335V12.0002H4.66683V7.3335Z" fill="#FDD2BE"/>
<path d="M7.33333 7.3335H6V12.0002H7.33333V7.3335Z" fill="#FDD2BE"/>
<path d="M9.99984 7.3335H8.6665V12.0002H9.99984V7.3335Z" fill="#FDD2BE"/>
<path d="M12.6668 7.3335H11.3335V12.0002H12.6668V7.3335Z" fill="#FDD2BE"/>
<path d="M15.3332 15.1665H0.666504C0.393171 15.1665 0.166504 14.9398 0.166504 14.6665C0.166504 14.3932 0.393171 14.1665 0.666504 14.1665H15.3332C15.6065 14.1665 15.8332 14.3932 15.8332 14.6665C15.8332 14.9398 15.6065 15.1665 15.3332 15.1665Z" fill="#FDD2BE"/>
<path d="M14.2468 3.83355L8.24683 1.43355C8.1135 1.38022 7.88683 1.38022 7.7535 1.43355L1.7535 3.83355C1.52016 3.92689 1.3335 4.20022 1.3335 4.45355V6.66689C1.3335 7.03355 1.6335 7.33355 2.00016 7.33355H14.0002C14.3668 7.33355 14.6668 7.03355 14.6668 6.66689V4.45355C14.6668 4.20022 14.4802 3.92689 14.2468 3.83355ZM8.00016 5.66689C7.44683 5.66689 7.00016 5.22022 7.00016 4.66689C7.00016 4.11355 7.44683 3.66689 8.00016 3.66689C8.5535 3.66689 9.00016 4.11355 9.00016 4.66689C9.00016 5.22022 8.5535 5.66689 8.00016 5.66689Z" fill="#FDD2BE"/>
</svg>
