<svg width="32" height="33" viewBox="0 0 32 33" fill="none" xmlns="http://www.w3.org/2000/svg">
<rect y="0.5" width="32" height="32" rx="16" fill="#221F1F" fill-opacity="0.2"/>
<path d="M22.6668 21.1667V23.1667H9.3335V21.1667C9.3335 20.8 9.6335 20.5 10.0002 20.5H22.0002C22.3668 20.5 22.6668 20.8 22.6668 21.1667Z" fill="#221F1F" stroke="#221F1F" stroke-width="1.5" stroke-miterlimit="10" stroke-linecap="round" stroke-linejoin="round"/>
<path d="M12.6668 15.833H11.3335V20.4997H12.6668V15.833Z" fill="#221F1F"/>
<path d="M15.3333 15.833H14V20.4997H15.3333V15.833Z" fill="#221F1F"/>
<path d="M17.9998 15.833H16.6665V20.4997H17.9998V15.833Z" fill="#221F1F"/>
<path d="M20.6668 15.833H19.3335V20.4997H20.6668V15.833Z" fill="#221F1F"/>
<path d="M23.3332 23.667H8.6665C8.39317 23.667 8.1665 23.4403 8.1665 23.167C8.1665 22.8937 8.39317 22.667 8.6665 22.667H23.3332C23.6065 22.667 23.8332 22.8937 23.8332 23.167C23.8332 23.4403 23.6065 23.667 23.3332 23.667Z" fill="#221F1F"/>
<path d="M22.2468 12.3336L16.2468 9.93355C16.1135 9.88022 15.8868 9.88022 15.7535 9.93355L9.7535 12.3336C9.52016 12.4269 9.3335 12.7002 9.3335 12.9536V15.1669C9.3335 15.5336 9.6335 15.8336 10.0002 15.8336H22.0002C22.3668 15.8336 22.6668 15.5336 22.6668 15.1669V12.9536C22.6668 12.7002 22.4802 12.4269 22.2468 12.3336ZM16.0002 14.1669C15.4468 14.1669 15.0002 13.7202 15.0002 13.1669C15.0002 12.6136 15.4468 12.1669 16.0002 12.1669C16.5535 12.1669 17.0002 12.6136 17.0002 13.1669C17.0002 13.7202 16.5535 14.1669 16.0002 14.1669Z" fill="#221F1F"/>
</svg>
