<svg width="14" height="15" viewBox="0 0 14 15" fill="none" xmlns="http://www.w3.org/2000/svg">
<path d="M4.66667 8.6665C4.50139 8.6665 4.36275 8.6105 4.25075 8.4985C4.13914 8.38689 4.08333 8.24845 4.08333 8.08317C4.08333 7.91789 4.13914 7.77925 4.25075 7.66725C4.36275 7.55564 4.50139 7.49984 4.66667 7.49984C4.83194 7.49984 4.97058 7.55564 5.08258 7.66725C5.19419 7.77925 5.25 7.91789 5.25 8.08317C5.25 8.24845 5.19419 8.38689 5.08258 8.4985C4.97058 8.6105 4.83194 8.6665 4.66667 8.6665ZM7 8.6665C6.83472 8.6665 6.69628 8.6105 6.58467 8.4985C6.47267 8.38689 6.41667 8.24845 6.41667 8.08317C6.41667 7.91789 6.47267 7.77925 6.58467 7.66725C6.69628 7.55564 6.83472 7.49984 7 7.49984C7.16528 7.49984 7.30392 7.55564 7.41592 7.66725C7.52753 7.77925 7.58333 7.91789 7.58333 8.08317C7.58333 8.24845 7.52753 8.38689 7.41592 8.4985C7.30392 8.6105 7.16528 8.6665 7 8.6665ZM9.33333 8.6665C9.16806 8.6665 9.02961 8.6105 8.918 8.4985C8.806 8.38689 8.75 8.24845 8.75 8.08317C8.75 7.91789 8.806 7.77925 8.918 7.66725C9.02961 7.55564 9.16806 7.49984 9.33333 7.49984C9.49861 7.49984 9.63706 7.55564 9.74867 7.66725C9.86067 7.77925 9.91667 7.91789 9.91667 8.08317C9.91667 8.24845 9.86067 8.38689 9.74867 8.4985C9.63706 8.6105 9.49861 8.6665 9.33333 8.6665ZM2.91667 13.3332C2.59583 13.3332 2.32108 13.219 2.09242 12.9908C1.86414 12.7621 1.75 12.4873 1.75 12.1665V3.99984C1.75 3.679 1.86414 3.40445 2.09242 3.17617C2.32108 2.9475 2.59583 2.83317 2.91667 2.83317H3.5V2.23525C3.5 2.06998 3.55581 1.93387 3.66742 1.82692C3.77942 1.71998 3.91806 1.6665 4.08333 1.6665C4.24861 1.6665 4.38725 1.72231 4.49925 1.83392C4.61086 1.94592 4.66667 2.08456 4.66667 2.24984V2.83317H9.33333V2.23525C9.33333 2.06998 9.38933 1.93387 9.50133 1.82692C9.61294 1.71998 9.75139 1.6665 9.91667 1.6665C10.0819 1.6665 10.2204 1.72231 10.332 1.83392C10.444 1.94592 10.5 2.08456 10.5 2.24984V2.83317H11.0833C11.4042 2.83317 11.6789 2.9475 11.9076 3.17617C12.1359 3.40445 12.25 3.679 12.25 3.99984V12.1665C12.25 12.4873 12.1359 12.7621 11.9076 12.9908C11.6789 13.219 11.4042 13.3332 11.0833 13.3332H2.91667ZM2.91667 12.1665H11.0833V6.33317H2.91667V12.1665Z" fill="#27AE60"/>
</svg>
