<svg width="375" height="239" viewBox="0 0 375 239" fill="none" xmlns="http://www.w3.org/2000/svg">
<path d="M182.443 211.601C266.728 211.601 335.054 205.041 335.054 196.95C335.054 188.858 266.728 182.299 182.443 182.299C98.1583 182.299 29.832 188.858 29.832 196.95C29.832 205.041 98.1583 211.601 182.443 211.601Z" fill="#BED5DC"/>
<path d="M253.462 132.548C253.462 132.548 253.919 68.9977 273.846 68.4614C293.773 67.9252 262.634 111.694 263.182 130.153L253.462 132.548Z" fill="#B2C9C6"/>
<path d="M258.49 131.277C258.155 124.208 258.988 112.173 264.867 94.9811C268.383 84.7039 272.09 77.3563 272.128 77.2832L272.421 77.4355C272.384 77.5087 268.685 84.841 265.178 95.0968C259.316 112.237 258.484 124.227 258.819 131.266L258.49 131.277Z" fill="#74A1BD"/>
<path d="M326.772 116.019C317.138 122.39 325.083 137.634 311.945 139.344C298.807 141.055 299.5 139.894 295.761 147.344C295.761 147.344 295.88 154.081 291.039 155.942C275.847 161.776 275.664 147.359 259.519 141.904C254.997 140.38 250.73 138.761 246.874 137.137C246.744 134.281 247.224 129.803 250.617 125.786C251.86 124.31 253.501 122.891 255.644 121.651C267.282 114.898 273.354 119.083 277.43 100.686C281.505 82.2884 302.903 98.0652 310.926 94.0951C318.948 90.125 325.299 84.7854 335.199 91.0696C345.098 97.3538 336.41 109.653 326.772 116.019Z" fill="#B2C9C6"/>
<g opacity="0.4">
<path d="M264.488 143.691L263.865 143.257C264.056 142.982 283.608 115.486 337.667 92.9829L337.959 93.6852C284.103 116.103 264.679 143.417 264.488 143.691Z" fill="#74A1BD"/>
<path d="M290.235 109.418C280.519 105.74 277.253 101.092 277.119 100.896L277.745 100.466C277.777 100.512 281.037 105.123 290.504 108.707L290.235 109.418Z" fill="#74A1BD"/>
<path d="M294.453 116.571C291.045 113.793 289.24 108.585 289.23 101.507C289.241 98.181 289.579 94.8642 290.239 91.6045L290.979 91.7706C290.94 91.9473 287.098 109.595 294.933 115.975L294.453 116.571Z" fill="#74A1BD"/>
<path d="M308.333 109.754C307.196 109.372 306.553 109.085 306.523 109.072L306.837 108.38C306.972 108.441 320.548 114.445 334.778 108.407L335.074 109.107C323.605 113.971 312.562 111.183 308.333 109.754Z" fill="#74A1BD"/>
<path d="M321.776 123.372C317.062 120.983 314.698 117.683 313.549 115.337C312.294 112.781 312.163 110.81 312.158 110.726L312.92 110.68C312.92 110.756 313.496 118.322 322.125 122.696L321.776 123.372Z" fill="#74A1BD"/>
<path d="M293.483 142.68C282.766 139.057 277.218 129.845 277.157 129.741L277.81 129.354C277.877 129.468 284.754 140.865 297.955 143.01L297.833 143.761C296.356 143.52 294.901 143.158 293.483 142.68Z" fill="#74A1BD"/>
<path d="M283.662 136.657L283.18 136.069C286.475 133.368 293.014 130.452 305.454 131.907C310.055 132.459 314.594 133.437 319.013 134.829L318.769 135.548C318.524 135.468 294.723 127.587 283.662 136.657Z" fill="#74A1BD"/>
</g>
<path d="M117.454 157.623C117.454 157.623 116.549 86.9004 97.3689 87.8677C78.1888 88.8351 108.475 135.123 108.086 155.72L117.454 157.623Z" fill="#B2C9C6"/>
<path d="M116.29 156.134C116.29 156.134 102.655 96.1099 83.6878 99.7296C64.7209 103.349 103.282 138.306 106.603 155.884L116.29 156.134Z" fill="#9BBCB6"/>
<path d="M110.869 156.042C108.797 143.854 102.374 131.44 97.3511 123.166C91.9063 114.196 86.8912 108.035 86.8394 107.974L87.2217 107.662C87.272 107.723 92.31 113.908 97.7731 122.91C102.817 131.22 109.269 143.7 111.355 155.959L110.869 156.042Z" fill="#74A1BD"/>
<path d="M49.3004 130.035C56.5505 136.453 48.167 148.175 58.8722 151.136C69.5774 154.098 69.1387 153.051 71.3644 159.668C71.3644 159.668 70.4747 165.247 74.2803 167.36C86.2058 173.983 88.0492 162.038 102.091 159.403C106.023 158.665 109.755 157.824 113.14 156.929C113.584 154.573 113.709 150.8 111.364 147.067C110.377 145.523 109.129 144.162 107.676 143.045C98.8077 136.074 93.2761 138.836 92.0482 123.088C90.8203 107.34 71.2106 117.927 65.0178 113.69C58.825 109.453 54.183 104.289 45.2282 108.337C36.2734 112.385 42.0473 123.623 49.3004 130.035Z" fill="#CFD3A3"/>
<path d="M97.757 160.312L98.3253 160.025C98.1988 159.774 85.1932 134.657 42.9588 109.641L42.6343 110.189C84.7103 135.111 97.6306 160.064 97.757 160.312Z" fill="#C4C695"/>
<path d="M80.3996 128.844C88.8958 126.93 92.1514 123.455 92.2824 123.308L91.8254 122.875C91.7934 122.91 88.5469 126.355 80.2686 128.219L80.3996 128.844Z" fill="#C4C695"/>
<path d="M76.0625 134.285C79.2175 132.381 81.3275 128.268 82.1654 122.393C82.5456 119.633 82.6537 116.842 82.4884 114.06L81.8531 114.112C81.8653 114.264 82.9865 129.36 75.7334 133.741L76.0625 134.285Z" fill="#C4C695"/>
<path d="M65.3422 127C66.3294 126.814 66.8976 126.653 66.9235 126.645L66.7438 126.036C66.6249 126.071 54.6552 129.462 43.5478 122.782L43.2188 123.332C52.169 128.708 61.6616 127.69 65.3422 127Z" fill="#C4C695"/>
<path d="M52.5847 136.728C56.7773 135.297 59.1264 132.835 60.3543 131.022C61.6949 129.042 62.0301 127.427 62.0499 127.358L61.4253 127.232C61.4131 127.294 60.0542 133.507 52.3745 136.124L52.5847 136.728Z" fill="#C4C695"/>
<path d="M95.6809 158.464H66.3896V189.966H92.3887L95.6809 158.464Z" fill="#6494BC"/>
<path d="M81.3076 158.464H51.2729L52.5923 189.966H81.3076V158.464Z" fill="#7CA1CE"/>
<path d="M95.0217 156.138H50.2446L49.4707 159.509L95.0217 160.076V156.138Z" fill="#96B4E0"/>
<path d="M76.6917 185.267H56.2776C55.9776 185.267 55.6887 185.154 55.468 184.951C55.2473 184.748 55.1111 184.469 55.0862 184.17L54.4235 176.043C54.4099 175.878 54.4304 175.713 54.484 175.556C54.5376 175.4 54.623 175.257 54.7348 175.135C54.8466 175.014 54.9824 174.917 55.1336 174.85C55.2849 174.784 55.4482 174.75 55.6134 174.75H76.6917C76.8487 174.749 77.0042 174.78 77.1493 174.84C77.2944 174.9 77.4262 174.988 77.5373 175.099C77.6483 175.21 77.7364 175.341 77.7966 175.486C77.8567 175.631 77.8876 175.787 77.8876 175.944V184.067C77.8884 184.224 77.8581 184.38 77.7983 184.526C77.7386 184.672 77.6506 184.804 77.5394 184.916C77.4283 185.028 77.2962 185.116 77.1507 185.176C77.0052 185.237 76.8492 185.268 76.6917 185.267Z" fill="#96B4E0"/>
<path d="M76.6914 172.387H56.2773C55.9773 172.387 55.6884 172.274 55.4677 172.071C55.247 171.867 55.1108 171.589 55.0859 171.29L54.4187 163.168C54.405 163.004 54.4256 162.838 54.4791 162.682C54.5327 162.526 54.6181 162.382 54.7299 162.261C54.8417 162.139 54.9775 162.042 55.1288 161.976C55.28 161.909 55.4433 161.875 55.6085 161.875H76.6914C76.8484 161.875 77.0039 161.906 77.149 161.965C77.294 162.025 77.4259 162.113 77.537 162.224C77.648 162.335 77.7361 162.467 77.7962 162.612C77.8564 162.757 77.8873 162.912 77.8873 163.069V171.192C77.8873 171.349 77.8564 171.505 77.7962 171.65C77.7361 171.795 77.648 171.927 77.537 172.037C77.4259 172.148 77.294 172.236 77.149 172.296C77.0039 172.356 76.8484 172.387 76.6914 172.387Z" fill="#96B4E0"/>
<path d="M82.0752 156.138V159.914L95.0214 160.076V156.138H82.0752Z" fill="#436E8E"/>
<path d="M57.4608 189.966L57.1226 191.529C57.0145 192.35 56.3914 192.355 56.1065 192.35C55.6586 192.35 55.3356 191.576 55.4499 190.869L55.5901 189.966H57.4608Z" fill="#2F1A31"/>
<path d="M76.8696 189.966L77.2078 191.529C77.316 192.35 77.9391 192.355 78.224 192.35C78.6719 192.35 78.9948 191.576 78.8821 190.869L78.7404 189.966H76.8696Z" fill="#2F1A31"/>
<path d="M66.0155 164.82C65.8536 164.824 65.6927 164.793 65.5439 164.729C65.3951 164.666 65.2618 164.57 65.1533 164.45C65.0781 164.358 65.0252 164.25 64.9988 164.134C64.9724 164.019 64.9731 163.898 65.0009 163.783C65.1289 163.173 65.5158 162.791 66.0125 162.791C66.5579 162.791 67.1215 163.132 67.1215 163.705C67.1232 163.851 67.0957 163.996 67.0408 164.132C66.9859 164.267 66.9047 164.39 66.8018 164.494C66.6989 164.598 66.5764 164.68 66.4414 164.736C66.3064 164.792 66.1617 164.821 66.0155 164.82ZM65.2264 163.828C65.2057 163.911 65.2042 163.997 65.2222 164.08C65.2402 164.163 65.2771 164.24 65.33 164.307C65.417 164.401 65.5232 164.475 65.6415 164.525C65.7598 164.574 65.8874 164.598 66.0155 164.593C66.1321 164.594 66.2476 164.571 66.3554 164.527C66.4631 164.482 66.5608 164.416 66.6428 164.333C66.7248 164.251 66.7895 164.152 66.8329 164.044C66.8764 163.936 66.8979 163.82 66.8961 163.704C66.8961 163.275 66.4482 163.02 66.0155 163.02C65.4412 163.02 65.266 163.64 65.2264 163.828Z" fill="#2F1A31"/>
<path d="M66.0531 166.028C65.9795 166.027 65.909 165.998 65.857 165.946C65.805 165.893 65.7759 165.823 65.7759 165.749V164.683C65.7763 164.609 65.8056 164.539 65.8575 164.487C65.9094 164.435 65.9797 164.406 66.0531 164.405C66.1266 164.406 66.1968 164.435 66.2488 164.487C66.3007 164.539 66.33 164.609 66.3304 164.683V165.749C66.3304 165.823 66.3013 165.893 66.2493 165.946C66.1973 165.998 66.1268 166.027 66.0531 166.028Z" fill="#2F1A31"/>
<path d="M66.0155 178.024C65.8536 178.028 65.6927 177.997 65.5439 177.933C65.3951 177.869 65.2618 177.774 65.1533 177.654C65.0781 177.562 65.0252 177.454 64.9988 177.338C64.9724 177.222 64.9731 177.102 65.0009 176.986C65.1289 176.377 65.5158 175.995 66.0125 175.995C66.5579 175.995 67.1215 176.336 67.1215 176.909C67.1232 177.055 67.0957 177.2 67.0408 177.335C66.9859 177.471 66.9047 177.594 66.8018 177.698C66.6989 177.801 66.5764 177.884 66.4414 177.94C66.3064 177.996 66.1617 178.024 66.0155 178.024ZM65.2264 177.032C65.2057 177.114 65.2042 177.2 65.2222 177.283C65.2402 177.366 65.2771 177.444 65.33 177.51C65.4173 177.604 65.5237 177.678 65.6419 177.727C65.7602 177.776 65.8875 177.8 66.0155 177.795C66.1321 177.796 66.2476 177.773 66.3554 177.729C66.4631 177.684 66.5608 177.618 66.6428 177.536C66.7248 177.453 66.7895 177.354 66.8329 177.246C66.8764 177.138 66.8979 177.022 66.8961 176.906C66.8961 176.478 66.4482 176.223 66.0155 176.223C65.4412 176.223 65.266 176.843 65.2264 177.032Z" fill="#2F1A31"/>
<path d="M66.0531 179.227C65.9797 179.227 65.9094 179.198 65.8575 179.146C65.8056 179.094 65.7763 179.024 65.7759 178.95V177.884C65.7763 177.81 65.8056 177.74 65.8575 177.688C65.9094 177.636 65.9797 177.607 66.0531 177.606C66.1266 177.607 66.1968 177.636 66.2488 177.688C66.3007 177.74 66.33 177.81 66.3304 177.884V178.95C66.33 179.024 66.3007 179.094 66.2488 179.146C66.1968 179.198 66.1266 179.227 66.0531 179.227Z" fill="#2F1A31"/>
<path d="M135.444 96.722C134.257 97.47 133.666 97.3161 133.372 96.85C133.078 96.3838 133.195 95.7836 134.382 95.0371C136.544 93.6751 138.119 93.8594 138.119 93.8594C138.119 93.8594 137.636 95.3402 135.444 96.722Z" fill="#CFD3A3"/>
<path d="M132.24 108.183C131.246 108.441 130.869 108.202 130.77 107.812C130.671 107.422 130.882 107.032 131.874 106.774C133.682 106.305 134.738 106.783 134.738 106.783C134.738 106.783 134.074 107.708 132.24 108.183Z" fill="#CFD3A3"/>
<path d="M135.853 129.473L135.588 129.458C135.588 129.418 135.793 125.302 134.217 119.333C132.768 113.826 129.471 105.567 121.985 97.505L122.18 97.3237C129.719 105.431 133.033 113.734 134.482 119.277C136.066 125.283 135.853 129.426 135.853 129.473Z" fill="#CFD3A3"/>
<path d="M129.636 107.567L129.408 107.431C134.35 99.1514 130.905 89.3952 130.87 89.3023L131.12 89.2124C131.157 89.3069 134.642 99.1773 129.636 107.567Z" fill="#CFD3A3"/>
<path d="M125.503 103.388C123.824 103.417 122.167 102.996 120.705 102.169L120.846 101.944C120.872 101.961 123.538 103.604 126.708 102.983L126.759 103.243C126.345 103.325 125.925 103.373 125.503 103.388Z" fill="#CFD3A3"/>
<path d="M135.221 123.509C129.75 123.061 125.248 120.543 121.837 116.02C121.756 115.905 121.668 115.795 121.575 115.689C121.583 115.695 121.593 115.7 121.603 115.703L121.679 115.448C121.753 115.47 121.802 115.532 122.049 115.86C125.408 120.316 129.846 122.797 135.237 123.239L135.221 123.509Z" fill="#CFD3A3"/>
<path d="M127.423 120.895L127.165 120.834C127.997 117.33 125.517 112.289 125.489 112.237L125.725 112.12C126.19 113.094 126.581 114.102 126.895 115.135C127.384 116.72 127.87 119.009 127.423 120.895Z" fill="#CFD3A3"/>
<path d="M121.773 96.0299C123.217 97.2486 123.359 97.957 123.004 98.376C122.649 98.7949 121.937 98.7721 120.487 97.5503C117.856 95.3245 117.229 93.4888 117.229 93.4888C117.229 93.4888 119.105 93.7767 121.773 96.0299Z" fill="#CFD3A3"/>
<path d="M121.39 101.293C123.134 102.022 123.481 102.652 123.269 103.159C123.058 103.666 122.366 103.86 120.62 103.13C117.442 101.8 116.289 100.235 116.289 100.235C116.289 100.235 118.163 99.9445 121.39 101.293Z" fill="#CFD3A3"/>
<path d="M126.255 111.349C126.936 112.567 126.75 113.157 126.269 113.423C125.788 113.69 125.203 113.542 124.516 112.316C123.272 110.083 123.544 108.52 123.544 108.52C123.544 108.52 124.995 109.083 126.255 111.349Z" fill="#CFD3A3"/>
<path d="M128.084 99.0738C128.448 100.43 128.125 100.948 127.593 101.089C127.062 101.231 126.527 100.937 126.161 99.5902C125.5 97.1207 126.142 95.6704 126.142 95.6704C126.142 95.6704 127.414 96.5708 128.084 99.0738Z" fill="#CFD3A3"/>
<path d="M130.889 119.371C130.857 120.774 130.401 121.181 129.851 121.169C129.301 121.157 128.866 120.729 128.899 119.326C128.959 116.771 129.982 115.56 129.982 115.56C129.982 115.56 130.95 116.781 130.889 119.371Z" fill="#CFD3A3"/>
<path d="M123.033 115.749C123.961 116.801 123.903 117.409 123.49 117.772C123.078 118.134 122.468 118.119 121.54 117.066C119.849 115.151 119.778 113.562 119.778 113.562C119.778 113.562 121.317 113.805 123.033 115.749Z" fill="#CFD3A3"/>
<path d="M131.646 88.1166C132.144 89.9448 131.862 90.6014 131.332 90.7461C130.802 90.8908 130.224 90.4658 129.725 88.6407C128.811 85.3165 129.338 83.4473 129.338 83.4473C129.338 83.4473 130.724 84.7437 131.646 88.1166Z" fill="#CFD3A3"/>
<path d="M121.487 46.2458C121.222 46.2458 121.067 46.2321 121.059 46.2306L121.076 46.063C121.109 46.063 124.38 46.3677 126.938 44.0825L127.049 44.209C124.988 46.0417 122.476 46.2458 121.487 46.2458Z" fill="#B2C9C6"/>
<path d="M125.271 48.1422C124.405 48.0372 123.598 47.6501 122.975 47.0407C122.718 46.7907 122.509 46.4965 122.356 46.1724L122.509 46.1084C122.509 46.1252 123.17 47.6699 125.291 47.9761L125.271 48.1422Z" fill="#B2C9C6"/>
<path d="M70.6121 70.6071H64.5016L63.8633 46.459C64.6219 46.1371 65.4275 45.9395 66.249 45.874C67.4984 45.7616 68.7535 45.725 70.0073 45.7643L70.6121 70.6071Z" fill="#CCDDDB"/>
<path d="M86.2818 70.6074H70.6116L70.0068 45.7646L86.2818 46.4593V70.6074Z" fill="#B2C9C6"/>
<path d="M80.5949 70.6072H76.0322V40.6441C76.75 40.4591 77.4825 40.3367 78.2214 40.2785C79.2676 40.2171 80.3165 40.2171 81.3628 40.2785L80.5949 70.6072Z" fill="#CCDDDB"/>
<path d="M92.2973 70.6066H80.5957L81.362 40.2778L92.2973 40.6435V70.6066Z" fill="#9BBCB6"/>
<path d="M91.5383 70.6076H88.1029L83.333 48.0606C83.812 47.9522 84.3001 47.8884 84.7909 47.8702C85.4565 47.8489 86.1221 47.9129 86.7714 48.0606L91.5383 70.6076Z" fill="#AEC7E5"/>
<path d="M100.346 70.6068H91.539L86.7676 48.0537L95.503 49.2999L100.346 70.6068Z" fill="#8DB4DB"/>
<path d="M63.9655 49.6322L63.9243 49.4722C64.8222 49.261 65.7451 49.1753 66.6665 49.2178C68.0635 49.3 69.9693 48.8415 69.9876 48.8369L70.0272 48.9969C70.0074 48.9969 68.0772 49.4661 66.6559 49.3823C65.7518 49.3405 64.8463 49.4246 63.9655 49.6322Z" fill="#B2C9C6"/>
<path d="M76.0439 43.0177L76.0195 42.8546C76.0515 42.8546 79.2188 42.3885 81.312 42.8546L81.2769 43.0146C79.2188 42.5561 76.0744 43.0131 76.0439 43.0177Z" fill="#B2C9C6"/>
<path d="M81.2208 44.6219C79.5069 43.8601 76.0731 44.142 76.0411 44.145L76.0273 43.982C76.1705 43.9698 79.5313 43.6941 81.2908 44.4726L81.2208 44.6219Z" fill="#B2C9C6"/>
<path d="M76.044 66.8552L76.0181 66.6922C76.146 66.6724 79.1686 66.2017 80.7164 66.6922L80.6661 66.8446C79.1564 66.3708 76.076 66.8507 76.044 66.8552Z" fill="#B2C9C6"/>
<path d="M76.0423 67.6791L76.021 67.5161C76.0499 67.5161 78.9612 67.1338 80.6888 67.5161L80.6523 67.6776C78.9536 67.3013 76.0713 67.6746 76.0423 67.6791Z" fill="#B2C9C6"/>
<path d="M83.8803 50.6444L83.8452 50.4844C83.9366 50.4646 86.0694 50.0198 87.3263 50.4844L87.2699 50.6368C86.0557 50.1889 83.9031 50.6413 83.8803 50.6444Z" fill="#8DB4DB"/>
<path d="M84.0241 51.3337L83.9951 51.1707C84.0774 51.157 86.0396 50.8188 87.4549 51.1707L87.4153 51.3307C86.0365 50.9864 84.0439 51.3292 84.0241 51.3337Z" fill="#8DB4DB"/>
<path d="M87.255 66.6361L87.2275 66.4746C87.3129 66.4594 89.3299 66.1319 90.6964 66.4746L90.6553 66.627C89.3284 66.2994 87.2793 66.6331 87.255 66.6361Z" fill="#8DB4DB"/>
<path d="M90.8483 67.5074C89.7273 67.2903 88.575 67.2903 87.454 67.5074L87.4175 67.3459C88.5623 67.1262 89.7385 67.1262 90.8833 67.3459L90.8483 67.5074Z" fill="#8DB4DB"/>
<path d="M123.151 65.1364C123.151 65.1364 123.039 65.4258 122.796 65.8981C122.788 65.9114 122.782 65.9251 122.776 65.9392C122.094 67.2458 121.241 68.455 120.238 69.5346C119.746 70.0372 119.147 70.423 118.486 70.6634H118.471C118.318 70.7229 118.166 70.7777 118.014 70.8264C115.741 71.5425 112.621 71.3901 110.169 70.6116L109.747 70.4684C109.537 70.3923 109.335 70.3161 109.138 70.2277C108.563 69.9836 108.032 69.6448 107.569 69.2253C107.516 69.1766 107.464 69.1278 107.417 69.073C105.718 67.3972 105.741 65.1196 105.741 65.1196L123.151 65.1364Z" fill="#CCDDDB"/>
<path d="M123.71 61.6982V64.1829C123.71 65.7201 119.508 66.9663 114.324 66.9663C109.14 66.9663 104.939 65.7201 104.939 64.1829V61.6982C104.939 60.9167 107.36 60.2479 110.791 59.9721C111.882 59.8822 113.076 59.8335 114.324 59.8335C119.508 59.8335 123.71 60.6668 123.71 61.6982Z" fill="#B2C9C6"/>
<path d="M123.71 61.6982C123.702 61.785 123.675 61.8691 123.631 61.9442C123.587 62.0193 123.526 62.0836 123.454 62.1324C122.47 62.9505 118.757 63.5629 114.324 63.5629C113.084 63.5629 111.897 63.5141 110.82 63.4273C107.376 63.15 104.946 62.4812 104.946 61.6982C104.946 60.9151 107.367 60.2479 110.797 59.9721C111.888 59.8822 113.083 59.8335 114.33 59.8335C119.508 59.8335 123.71 60.6668 123.71 61.6982Z" fill="#9BBCB6"/>
<path d="M114.891 35.9455C113.99 36.5336 113.555 36.3904 113.348 35.9989C113.14 35.6073 113.239 35.1137 114.14 34.5257C115.78 33.4593 116.947 33.6482 116.947 33.6482C116.947 33.6482 116.554 34.8608 114.891 35.9455Z" fill="#B2C9C6"/>
<path d="M114.845 43.4653C114.164 44.3443 113.71 44.3657 113.399 44.0747C113.089 43.7837 113.041 43.2749 113.722 42.3989C114.962 40.7962 116.123 40.5586 116.123 40.5586C116.123 40.5586 116.104 41.8398 114.845 43.4653Z" fill="#B2C9C6"/>
<path d="M114.429 63.0342L114.232 63.0144C114.232 62.9808 114.482 59.5836 113.455 54.608C112.044 47.9076 109.106 41.623 104.871 36.2429L105.023 36.0981C109.282 41.509 112.236 47.8297 113.653 54.5684C114.677 59.5759 114.432 63.0037 114.429 63.0342Z" fill="#B2C9C6"/>
<path d="M110.316 44.7605L110.15 44.6432C114.019 37.9264 111.687 29.7714 111.664 29.6906L111.852 29.6221C111.876 29.7043 114.237 37.9553 110.316 44.7605Z" fill="#B2C9C6"/>
<path d="M107.34 41.1969C106.076 41.1714 104.846 40.7793 103.8 40.0681L103.909 39.8853C103.929 39.9005 105.873 41.328 108.245 40.8968L108.277 41.1131C107.968 41.1696 107.655 41.1977 107.34 41.1969Z" fill="#B2C9C6"/>
<path d="M114.095 58.0857C110.037 57.5723 106.755 55.3725 104.318 51.5486C104.261 51.4518 104.198 51.3582 104.13 51.2683C104.136 51.2728 104.143 51.2764 104.15 51.279L104.213 51.0718C104.269 51.0916 104.303 51.1449 104.479 51.4222C106.874 55.1927 110.116 57.3636 114.117 57.8679L114.095 58.0857Z" fill="#B2C9C6"/>
<path d="M108.356 55.7217L108.166 55.6638C108.867 52.7861 107.141 48.5555 107.124 48.5143L107.302 48.4214C107.625 49.2433 107.893 50.0862 108.102 50.9442C108.431 52.2696 108.736 54.1678 108.356 55.7217Z" fill="#B2C9C6"/>
<path d="M104.74 35.0181C105.785 36.0662 105.873 36.6512 105.599 36.9894C105.325 37.3276 104.792 37.2941 103.747 36.2414C101.842 34.331 101.423 32.7969 101.423 32.7969C101.423 32.7969 102.807 33.0802 104.74 35.0181Z" fill="#B2C9C6"/>
<path d="M104.329 39.358C105.61 40.007 105.852 40.5356 105.684 40.9485C105.517 41.3613 104.996 41.5045 103.715 40.8556C101.381 39.6734 100.561 38.3525 100.561 38.3525C100.561 38.3525 101.961 38.1575 104.329 39.358Z" fill="#B2C9C6"/>
<path d="M107.713 47.7997C108.191 48.8311 108.039 49.3064 107.675 49.5151C107.31 49.7238 106.873 49.5852 106.395 48.5538C105.525 46.6739 105.763 45.3896 105.763 45.3896C105.763 45.3896 106.829 45.8924 107.713 47.7997Z" fill="#B2C9C6"/>
<path d="M109.36 37.6986C109.599 38.829 109.346 39.2479 108.949 39.3515C108.551 39.4551 108.157 39.1992 107.917 38.0749C107.485 36.0167 107.997 34.833 107.997 34.833C107.997 34.833 108.921 35.61 109.36 37.6986Z" fill="#B2C9C6"/>
<path d="M110.971 54.5576C110.913 55.7154 110.566 56.0399 110.156 56.0155C109.746 55.9911 109.434 55.6255 109.498 54.4722C109.603 52.3607 110.393 51.3857 110.393 51.3857C110.393 51.3857 111.076 52.4156 110.971 54.5576Z" fill="#B2C9C6"/>
<path d="M105.212 51.3524C105.878 52.2452 105.822 52.7464 105.505 53.0374C105.188 53.3284 104.743 53.2964 104.071 52.4021C102.852 50.7751 102.842 49.4634 102.842 49.4634C102.842 49.4634 103.981 49.701 105.212 51.3524Z" fill="#B2C9C6"/>
<path d="M112.267 28.7265C112.596 30.2499 112.371 30.7862 111.973 30.8928C111.575 30.9994 111.155 30.6323 110.826 29.1104C110.229 26.3377 110.66 24.8066 110.66 24.8066C110.66 24.8066 111.661 25.9203 112.267 28.7265Z" fill="#B2C9C6"/>
<path d="M114.57 63.3262C114.57 63.3262 109.424 41.9797 104.264 43.7454C99.1041 45.5111 110.565 57.2035 111.881 63.4709L114.57 63.3262Z" fill="#9BBCB6"/>
<path d="M113.815 62.3635C113.815 62.3635 105.941 45.2308 101.018 47.7887C96.0961 50.3465 109.041 57.9653 111.158 63.0338L113.815 62.3635Z" fill="#B2C9C6"/>
<path d="M112.296 62.7705C109.603 56.0247 102.502 50.1381 102.43 50.0803L102.56 49.8853C102.631 49.9447 109.779 55.8663 112.494 62.673L112.296 62.7705Z" fill="#B2C9C6"/>
<path d="M128.741 50.2493C126.898 52.8864 130.124 56.3248 127.03 58.0097C123.936 59.6946 124.031 59.1416 123.731 61.5289C123.74 61.6457 123.72 61.7631 123.672 61.8698C123.623 61.9765 123.548 62.0689 123.453 62.1382C122.469 62.9579 118.757 63.5688 114.323 63.5688C113.083 63.5688 111.896 63.5215 110.819 63.4332C110.417 62.318 110.408 61.0984 110.797 59.978C111.005 59.3998 111.307 58.8599 111.691 58.3799C113.996 55.4534 115.841 56.0369 115.314 50.621C114.786 45.2052 121.372 47.5467 123.019 45.717C124.666 43.8874 125.786 41.8368 128.747 42.6427C131.709 43.4486 130.586 47.6168 128.741 50.2493Z" fill="#CCDDDB"/>
<path d="M115.7 63.7654L115.509 63.7044C115.534 63.6115 118.063 54.2713 129.51 43.106L129.639 43.272C118.235 54.3871 115.724 63.6648 115.7 63.7654Z" fill="#B2C9C6"/>
<path d="M119.189 51.9868C116.49 51.8802 115.297 50.9082 115.248 50.8671L115.367 50.6919C115.379 50.701 116.566 51.6623 119.197 51.7674L119.189 51.9868Z" fill="#B2C9C6"/>
<path d="M120.825 53.5579C119.759 53.1131 118.875 51.8532 118.284 49.9153C118.009 48.9999 117.816 48.0618 117.708 47.1122L117.905 47.0894C117.905 47.1412 118.432 52.3285 120.895 53.3522L120.825 53.5579Z" fill="#B2C9C6"/>
<path d="M123.678 50.4062C123.365 50.4062 123.182 50.3864 123.175 50.3864L123.195 50.167C123.233 50.167 127.076 50.5601 130.081 47.5894L130.212 47.7539C127.791 50.1472 124.838 50.4062 123.678 50.4062Z" fill="#B2C9C6"/>
<path d="M128.123 52.8907C127.084 52.7395 126.131 52.2303 125.427 51.4511C125.12 51.1189 124.874 50.7352 124.7 50.3176L124.883 50.2354C124.883 50.2552 125.661 52.2752 128.152 52.6729L128.123 52.8907Z" fill="#B2C9C6"/>
<path d="M122.759 60.7945C119.815 60.7945 117.683 58.7851 117.658 58.7622L117.788 58.5962C117.814 58.6206 120.457 61.1053 123.881 60.4716L123.915 60.6879C123.534 60.7589 123.147 60.7946 122.759 60.7945Z" fill="#B2C9C6"/>
<path d="M119.838 60.0573L119.671 59.94C120.257 58.8949 121.625 57.4918 124.813 56.7407C125.988 56.4661 127.188 56.3129 128.394 56.2837V56.5031C128.329 56.5046 121.808 56.5488 119.838 60.0573Z" fill="#B2C9C6"/>
<path d="M130.549 73.5217L63.0298 74.1859V70.2295H129.949L130.549 73.5217Z" fill="#B2C9C6"/>
<path d="M195.258 49.8303C195.258 51.0323 186.173 52.0058 174.965 52.0058C163.757 52.0058 154.716 53.7425 154.716 52.5405C154.716 43.9498 163.759 35.8862 174.965 35.8862C186.172 35.8862 195.258 42.1323 195.258 49.8303Z" fill="#7CA1CE"/>
<path d="M195.217 49.9519C195.269 50.7898 190.891 51.7998 184.427 52.5783L183.287 52.7109C180.79 52.9881 178.02 53.2319 175.106 53.4177C172.629 53.5701 170.255 53.6782 168.057 53.7316C167.26 53.7509 166.488 53.7641 165.741 53.7712C159.242 53.823 154.773 53.3796 154.716 52.5417C154.669 51.8181 157.926 50.9665 162.973 50.249C163.375 50.1931 163.787 50.1367 164.21 50.0799C166.343 49.7996 168.752 49.5436 171.328 49.3334C172.466 49.2389 173.633 49.1506 174.832 49.0759C175.664 49.0211 176.488 48.9754 177.294 48.9358C180.705 48.7621 183.863 48.695 186.544 48.7286H186.736C191.829 48.7986 195.168 49.2298 195.217 49.9519Z" fill="#B2C9C6"/>
<path d="M186.539 48.7286C185.949 49.8407 185.203 50.8622 184.322 51.7617C183.994 52.0962 183.648 52.413 183.287 52.7108C181.89 53.8603 180.27 54.7079 178.529 55.2004C176.788 55.6929 174.964 55.8196 173.172 55.5724C171.38 55.3253 169.659 54.7097 168.116 53.7643C166.574 52.819 165.244 51.5645 164.21 50.0799C166.343 49.7996 168.751 49.5436 171.327 49.3334C172.465 49.2389 173.632 49.1506 174.831 49.0759C175.663 49.0211 176.487 48.9754 177.293 48.9358C180.7 48.7621 183.858 48.695 186.539 48.7286Z" fill="white"/>
<path d="M174.966 37.328C174.852 37.328 174.738 37.3054 174.633 37.2616C174.527 37.2178 174.431 37.1536 174.35 37.0727C174.269 36.9918 174.205 36.8957 174.161 36.79C174.117 36.6843 174.095 36.571 174.095 36.4565V22.2474C174.095 22.0163 174.187 21.7946 174.35 21.6312C174.513 21.4678 174.735 21.376 174.966 21.376C175.197 21.376 175.419 21.4678 175.582 21.6312C175.746 21.7946 175.838 22.0163 175.838 22.2474V36.4565C175.838 36.6877 175.746 36.9093 175.582 37.0727C175.419 37.2361 175.197 37.328 174.966 37.328Z" fill="#7CA1CE"/>
<path d="M172.44 36.2646C172.44 35.7651 172.588 35.2767 172.866 34.8613C173.143 34.446 173.538 34.1222 173.999 33.931C174.461 33.7399 174.969 33.6898 175.459 33.7873C175.949 33.8848 176.399 34.1253 176.752 34.4786C177.105 34.8318 177.346 35.2819 177.443 35.7719C177.541 36.2618 177.491 36.7697 177.299 37.2313C177.108 37.6928 176.784 38.0873 176.369 38.3648C175.954 38.6424 175.465 38.7905 174.966 38.7905C174.296 38.7905 173.653 38.5244 173.18 38.0507C172.706 37.577 172.44 36.9345 172.44 36.2646Z" fill="#7CA1CE"/>
<path d="M97.8612 203.194L97.7591 203.042C97.7698 203.042 98.8255 202.332 98.9672 201.518C98.9923 201.378 98.9874 201.235 98.953 201.097C98.9186 200.959 98.8555 200.83 98.7676 200.718C98.7169 200.64 98.6476 200.576 98.5659 200.532C98.4843 200.488 98.3929 200.464 98.2999 200.464H98.2908C97.3767 200.478 96.0574 202.359 96.0437 202.379L95.8045 202.723L95.8762 202.309C95.8762 202.292 96.1656 200.633 95.5852 200.132C95.4039 199.979 95.1464 199.955 94.8234 200.066C94.665 200.114 94.519 200.196 94.3959 200.306C94.2729 200.417 94.176 200.554 94.112 200.706C93.7311 201.62 94.4274 203.067 94.435 203.083L94.2674 203.163C94.2369 203.101 93.5285 201.628 93.9414 200.635C94.0151 200.458 94.1271 200.299 94.2693 200.171C94.4116 200.042 94.5805 199.947 94.764 199.891C95.1571 199.757 95.4755 199.791 95.7101 199.99C96.193 200.404 96.1671 201.433 96.1108 201.983C96.5373 201.431 97.5139 200.29 98.2923 200.278C98.4166 200.275 98.5396 200.304 98.6497 200.362C98.7598 200.42 98.8533 200.505 98.9215 200.609C99.0243 200.741 99.098 200.893 99.1379 201.055C99.1778 201.218 99.183 201.387 99.1531 201.552C98.9855 202.441 97.9069 203.16 97.8612 203.194Z" fill="#42428E"/>
<path d="M135.233 195.368C135.184 195.336 134.038 194.571 133.862 193.622C133.83 193.449 133.836 193.27 133.878 193.099C133.921 192.927 133.999 192.767 134.107 192.627C134.178 192.517 134.277 192.428 134.393 192.367C134.509 192.306 134.639 192.276 134.77 192.28C135.602 192.292 136.645 193.522 137.09 194.108C137.031 193.531 136.995 192.423 137.512 191.975C137.759 191.764 138.094 191.729 138.51 191.87C138.704 191.929 138.882 192.03 139.032 192.166C139.182 192.302 139.3 192.469 139.378 192.656C139.815 193.706 139.064 195.268 139.032 195.333L138.865 195.251C138.865 195.236 139.611 193.7 139.208 192.727C139.139 192.564 139.035 192.419 138.903 192.301C138.771 192.183 138.615 192.096 138.446 192.046C138.095 191.927 137.821 191.951 137.628 192.116C137.009 192.646 137.312 194.413 137.323 194.43L137.395 194.846L137.155 194.5C137.14 194.48 135.737 192.481 134.768 192.468C134.667 192.465 134.567 192.489 134.477 192.537C134.388 192.584 134.312 192.655 134.258 192.74C134.165 192.859 134.098 192.997 134.061 193.143C134.025 193.29 134.02 193.443 134.046 193.592C134.198 194.463 135.317 195.207 135.329 195.214L135.233 195.368Z" fill="#42428E"/>
<path d="M60.021 199.585C60.0096 199.502 60.0174 199.418 60.0439 199.339C60.0703 199.26 60.1146 199.187 60.1734 199.128C60.4415 198.857 61.0098 198.778 61.4714 198.762C60.9153 198.567 60.1917 198.241 60.0424 197.826C60.0131 197.744 60.0057 197.656 60.0209 197.571C60.0361 197.486 60.0735 197.406 60.1292 197.34C60.798 196.426 63.0466 197.89 63.1411 197.949L63.0405 198.101C62.4311 197.704 60.7477 196.809 60.2785 197.445C60.2414 197.487 60.2163 197.538 60.2056 197.593C60.1949 197.648 60.199 197.706 60.2176 197.759C60.3928 198.243 61.6923 198.66 62.1798 198.779L62.1478 198.962C62.1341 198.962 60.7264 198.828 60.3044 199.255C60.2641 199.293 60.2335 199.341 60.215 199.394C60.1965 199.447 60.1906 199.504 60.1978 199.559L60.021 199.585Z" fill="#42428E"/>
<path d="M117.877 194.913L117.692 194.893C117.7 194.838 117.694 194.781 117.675 194.728C117.657 194.675 117.626 194.627 117.586 194.588C117.235 194.235 116.137 194.258 115.742 194.296L115.712 194.115C116.198 193.994 117.499 193.577 117.673 193.092C117.691 193.039 117.695 192.983 117.685 192.928C117.674 192.873 117.649 192.821 117.613 192.779C117.142 192.143 115.459 193.038 114.851 193.435L114.749 193.283C114.843 193.22 117.092 191.759 117.761 192.673C117.817 192.74 117.854 192.82 117.869 192.906C117.884 192.991 117.877 193.079 117.848 193.161C117.695 193.575 116.975 193.901 116.419 194.098C116.876 194.112 117.449 194.191 117.718 194.462C117.777 194.52 117.822 194.591 117.85 194.669C117.877 194.747 117.886 194.831 117.877 194.913Z" fill="#42428E"/>
<path d="M329.297 195.914L329.111 195.894C329.118 195.839 329.112 195.782 329.094 195.729C329.076 195.677 329.046 195.629 329.006 195.589C328.582 195.164 327.178 195.297 327.161 195.297L327.13 195.116C327.616 194.995 328.917 194.578 329.092 194.093C329.111 194.04 329.114 193.983 329.104 193.928C329.093 193.873 329.068 193.822 329.032 193.78C328.561 193.144 326.879 194.038 326.27 194.438L326.167 194.285C326.263 194.223 328.512 192.762 329.181 193.676C329.236 193.743 329.273 193.823 329.288 193.908C329.303 193.994 329.295 194.082 329.266 194.163C329.114 194.578 328.393 194.904 327.839 195.1C328.296 195.116 328.867 195.193 329.137 195.464C329.195 195.523 329.24 195.593 329.268 195.671C329.296 195.749 329.305 195.832 329.297 195.914Z" fill="#42428E"/>
<path d="M303.616 201.241C303.571 200.706 303.374 200.327 303.033 200.106C302.283 199.629 301.065 200.066 301.052 200.071L300.63 200.223L300.935 199.89C300.944 199.879 301.808 198.915 301.631 198.214C301.563 197.949 301.345 197.757 300.981 197.621C299.448 197.085 298.193 200.211 298.13 200.363L297.923 200.283C297.945 200.228 298.173 199.596 297.893 199.16C297.722 198.893 297.387 198.747 296.898 198.724C296.438 198.703 296.124 198.809 295.956 199.043C295.636 199.49 295.943 200.28 295.946 200.287L295.74 200.369C295.725 200.331 295.385 199.455 295.777 198.913C295.988 198.608 296.371 198.476 296.909 198.502C297.474 198.529 297.868 198.71 298.082 199.041C298.179 199.199 298.237 199.378 298.249 199.564C298.752 198.572 299.786 196.974 301.054 197.412C301.493 197.565 301.759 197.818 301.846 198.159C301.989 198.726 301.593 199.39 301.324 199.759C301.781 199.65 302.568 199.542 303.152 199.911C303.555 200.167 303.787 200.606 303.839 201.215L303.616 201.241Z" fill="#42428E"/>
<path d="M219.958 205.519C219.879 205.472 218.052 204.361 218.052 203.386C218.052 203.081 218.22 202.833 218.55 202.634C218.716 202.528 218.903 202.459 219.097 202.433C219.292 202.407 219.49 202.423 219.678 202.481C220.602 202.76 221.273 203.936 221.45 204.277C222.393 203.718 223.095 203.583 223.537 203.874C224.169 204.293 224.01 205.409 224.004 205.456L223.82 205.429C223.82 205.418 223.972 204.381 223.433 204.029C223.043 203.772 222.379 203.925 221.453 204.486L221.364 204.541L221.32 204.448C221.32 204.433 220.599 202.953 219.615 202.658C219.452 202.609 219.281 202.596 219.112 202.619C218.943 202.643 218.782 202.703 218.639 202.795C218.363 202.961 218.229 203.156 218.229 203.389C218.229 204.259 220.028 205.351 220.045 205.37L219.958 205.519Z" fill="#42428E"/>
<path d="M198.64 61.7174C198.64 45.9071 212.831 35.0068 228.641 35.0068C251.537 35.0068 259.4 47.8236 259.4 63.6339C259.4 79.4442 241.255 90.64 225.447 90.64C209.638 90.64 198.64 77.5262 198.64 61.7174Z" fill="#CFD3A3"/>
<path d="M193.636 87.0936C193.636 87.0936 203.645 85.5488 204.359 75.5977L212.222 81.3456C212.222 81.3456 208.47 90.4878 193.636 87.0936Z" fill="#CFD3A3"/>
<path d="M224.993 93.981C218.933 93.981 213.306 92.0462 208.716 88.3854C204.016 91.9411 197.664 91.4628 193.148 90.4299L192.367 90.2501L193.159 90.1267C193.234 90.116 200.688 88.8866 203.061 82.1804C199.772 77.2155 198.034 71.2436 198.034 64.903C198.034 57.4016 201.274 50.5111 207.159 45.502C212.814 40.6909 220.282 38.0371 228.183 38.0371C238.944 38.0371 247.046 40.8738 252.261 46.4709C256.796 51.3368 259.095 58.1831 259.095 66.8165C259.095 74.1747 255.149 81.1186 247.985 86.3729C241.495 91.1383 232.896 93.981 224.993 93.981ZM208.719 87.9878L208.814 88.064C213.367 91.7294 218.961 93.6672 224.993 93.6672C232.835 93.6672 241.364 90.8473 247.806 86.1216C254.892 80.9281 258.792 74.0711 258.792 66.8134C258.792 58.2593 256.52 51.4845 252.04 46.6766C246.886 41.1465 238.861 38.3418 228.187 38.3418C220.354 38.3418 212.953 40.9652 207.357 45.7305C201.542 50.6802 198.34 57.4869 198.34 64.8969C198.34 71.204 200.075 77.1409 203.358 82.0677L203.401 82.1317L203.375 82.2033C201.395 87.907 195.866 89.7794 193.905 90.2775C198.323 91.1916 204.242 91.4506 208.623 88.067L208.719 87.9878Z" fill="#2F1A31"/>
<path d="M217.682 67.9531L216.949 61.1417L217.904 61.0397L218.637 67.851L217.682 67.9531ZM217.967 64.9839L217.869 64.0698L221.649 63.663L221.747 64.5771L217.967 64.9839ZM221.553 67.5311L220.82 60.7197L221.775 60.6177L222.508 67.429L221.553 67.5311Z" fill="white"/>
<path d="M226.144 67.1171C225.467 67.1892 224.922 67.0572 224.51 66.721C224.097 66.3848 223.854 65.8669 223.778 65.1671L223.721 64.6187C223.641 63.8955 223.76 63.3161 224.076 62.8804C224.391 62.4447 224.874 62.1908 225.523 62.1187C225.796 62.0761 226.075 62.1016 226.336 62.193C226.597 62.2845 226.831 62.439 227.017 62.6428C227.401 63.0592 227.637 63.6716 227.724 64.48L227.758 64.7984L224.479 65.1504L224.395 64.3886L226.766 64.1342C226.724 63.8031 226.582 63.4925 226.361 63.243C226.266 63.1445 226.148 63.07 226.019 63.0255C225.89 62.981 225.751 62.9679 225.616 62.9871C225.457 62.9958 225.303 63.0406 225.164 63.1179C225.025 63.1953 224.905 63.3031 224.814 63.4334C224.629 63.746 224.562 64.1145 224.624 64.4724L224.69 65.0909C224.697 65.2603 224.737 65.4266 224.809 65.5802C224.881 65.7337 224.983 65.8714 225.108 65.9852C225.241 66.0826 225.392 66.1521 225.552 66.1895C225.713 66.227 225.879 66.2316 226.041 66.203C226.448 66.1602 226.821 65.9581 227.08 65.6409L227.774 66.2015C227.565 66.4544 227.309 66.6657 227.022 66.8246C226.752 66.9794 226.453 67.0789 226.144 67.1171Z" fill="white"/>
<path d="M229.513 59.791L230.108 65.3242C230.113 65.4216 230.151 65.5146 230.215 65.5877C230.244 65.6175 230.281 65.6398 230.32 65.6528C230.36 65.6658 230.402 65.6691 230.444 65.6624L230.893 65.6136L230.991 66.5277L230.428 66.5886C230.273 66.6142 230.115 66.6052 229.963 66.5623C229.812 66.5194 229.672 66.4436 229.554 66.3403C229.311 66.096 229.168 65.7702 229.152 65.4262L228.558 59.9038L229.513 59.791Z" fill="white"/>
<path d="M232.287 59.4995L232.881 65.0327C232.886 65.1299 232.924 65.2227 232.988 65.2962C233.017 65.3258 233.053 65.348 233.093 65.3609C233.133 65.3739 233.175 65.3773 233.216 65.3709L233.666 65.3221L233.763 66.2362L233.201 66.2956C233.046 66.3214 232.887 66.3126 232.736 66.27C232.585 66.2273 232.445 66.1518 232.326 66.0488C232.084 65.8045 231.94 65.4787 231.924 65.1347L231.33 59.6122L232.287 59.4995Z" fill="white"/>
<path d="M236.718 65.9768C236.081 66.0459 235.567 65.9139 235.178 65.5807C234.789 65.2476 234.558 64.7459 234.485 64.0756L234.4 63.2834C234.329 62.6182 234.448 62.0839 234.758 61.6807C235.068 61.2775 235.541 61.0419 236.179 60.9739C236.818 60.9053 237.329 61.0348 237.719 61.3623C238.109 61.6899 238.338 62.1865 238.409 62.8523L238.496 63.6582C238.568 64.3275 238.45 64.8637 238.14 65.2669C237.83 65.6701 237.356 65.9068 236.718 65.9768ZM236.615 65.0628C236.761 65.0557 236.903 65.0165 237.032 64.948C237.16 64.8796 237.273 64.7835 237.36 64.6667C237.532 64.3951 237.596 64.0692 237.541 63.7526L237.454 62.9467C237.44 62.6287 237.308 62.3274 237.084 62.1012C236.974 62.0067 236.844 61.9375 236.704 61.8986C236.564 61.8596 236.417 61.8518 236.274 61.8757C236.129 61.8823 235.988 61.9208 235.86 61.9885C235.732 62.0562 235.62 62.1514 235.533 62.2673C235.365 62.5376 235.302 62.8599 235.355 63.1737L235.442 63.9796C235.456 64.2992 235.587 64.6027 235.809 64.8327C235.917 64.9296 236.046 65.001 236.185 65.0419C236.325 65.0827 236.471 65.0919 236.615 65.0689V65.0628Z" fill="white"/>
<path d="M273.006 191.516C273.576 191.516 273.984 190.654 273.843 189.867L271.44 176.593H268.346L272.179 190.666C272.318 191.186 272.645 191.521 273.006 191.516Z" fill="#2F1A31"/>
<path d="M271.507 176.986C271.507 176.986 269.831 176.751 268.785 178.205L268.343 176.587L271.42 176.416L271.507 176.986Z" fill="#2F1A31"/>
<path d="M283.045 111.315L268.193 156.214L266.684 160.773L205.899 170.274L203.856 170.197C203.884 170.335 203.898 170.475 203.899 170.615V175.671C203.898 176.248 203.669 176.801 203.261 177.208C202.853 177.616 202.3 177.845 201.723 177.845H87.9615C87.6761 177.845 87.3935 177.789 87.1298 177.68C86.8661 177.57 86.6266 177.41 86.4248 177.208C86.2231 177.006 86.0631 176.767 85.954 176.503C85.8449 176.239 85.7889 175.957 85.7891 175.671C85.7891 175.671 79.7456 157.39 96.2627 151.753C112.78 146.116 131.061 157.096 141.253 153.833C142.719 153.362 143.735 152.157 144.495 150.422C149.035 140.12 144.596 111.406 172.91 111.307L283.045 111.315Z" fill="#A2BEE0"/>
<path d="M90.9711 192.455C90.3998 192.455 89.99 191.593 90.1332 190.807L92.4885 177.67H95.6801L92.263 191.533C92.1305 192.456 91.3322 192.461 90.9711 192.455Z" fill="#2F1A31"/>
<path d="M283.046 111.315L268.194 156.214L256.752 160.007L228.136 150.323C228.136 150.323 177.881 150.428 144.499 150.414C149.039 140.113 144.6 111.399 172.914 111.3L283.046 111.315Z" fill="#96B4E0"/>
<path d="M289.456 118.875L277.077 173.39C276.745 174.847 275.925 176.146 274.753 177.073C273.581 178 272.127 178.498 270.632 178.485L202.5 177.846C202.5 177.846 197.055 157.386 213.575 151.746C230.095 146.106 248.372 157.089 258.565 153.824C267.52 150.955 260.698 119.394 281.332 111.698C285.934 109.978 290.597 114.089 289.456 118.875Z" fill="#7CA1CE"/>
<path d="M141.88 105.203C141.048 106.672 132.691 119.491 134.44 132.031L143.536 128.774L147.692 111.873L141.88 105.203Z" fill="#F7B686"/>
<path d="M178.205 99.956C178.205 99.956 172.617 90.0292 159.009 92.7729C145.402 95.5167 137.986 114.8 141.671 152.993C141.671 152.993 163.281 144.483 191.381 151.343C191.381 151.343 186.756 114.356 178.205 99.956Z" fill="#E28569"/>
<path d="M188.575 95.9454L179.013 105.391C179.013 105.391 154.5 111.949 147.692 111.871C140.884 111.794 138.204 106.879 138.204 106.879C138.204 106.879 143.951 97.8665 155.571 93.7913C156.696 93.395 157.842 93.0584 159.002 92.7827C160.998 92.316 163.03 92.0245 165.076 91.9113C177.117 91.1877 188.575 95.9454 188.575 95.9454Z" fill="#E28569"/>
<path d="M188.575 95.9448C190.098 97.5902 187.746 99.3878 185.106 101.997C182.466 104.607 179.737 106.131 179.012 105.398C178.287 104.665 179.841 101.955 182.481 99.3452C185.121 96.7355 187.874 95.1892 188.575 95.9448Z" fill="#2F1A31"/>
<path d="M180.284 105.436C180.284 105.436 180.142 103.549 182.538 101.139C183.981 99.6868 185.808 98.7377 187.033 98.2121C187.205 98.1376 187.391 98.0987 187.579 98.0977C187.768 98.0966 187.954 98.1334 188.128 98.2059C188.301 98.2784 188.458 98.3851 188.59 98.5197C188.721 98.6542 188.824 98.8139 188.893 98.9891L189.655 100.947L186.09 103.223L180.284 105.436Z" fill="#F7B686"/>
<path d="M163.39 140.451C163.39 140.451 192.888 124.621 203.456 141.891C211.282 154.674 199.518 166.58 155.877 165.37C155.877 165.37 151.565 163.37 152.616 152.993C153.036 148.882 163.39 140.451 163.39 140.451Z" fill="#436E8E"/>
<path d="M163.389 140.451C163.389 140.451 124.101 124.514 116.328 134.478C107.395 145.928 115.961 165.37 157.373 158.42L162.42 152.994L163.389 140.451Z" fill="#436E8E"/>
<path d="M155.835 165.437C150.991 162.013 152.523 153.068 152.54 152.978V152.931L152.586 152.915L182.409 142.166L182.463 142.318L152.686 153.053C152.572 153.753 151.343 162.065 155.924 165.301L155.835 165.437Z" fill="#020202"/>
<path d="M152.369 155.847C152.369 155.847 145.128 156.139 141.727 157.791C138.327 159.442 140.143 163.475 147.049 163.368C153.955 163.261 153.43 162.242 153.43 162.242C153.43 162.242 152.117 158.702 152.369 155.847Z" fill="#2F1A31"/>
<path d="M161.637 141.21C159.239 141.21 157.269 140.61 155.671 139.416C152.655 137.163 152.095 133.57 152.533 131.18L155.418 129.518C155.57 128.733 161.131 131.651 161.122 131.651C161.148 131.651 163.78 132.413 172.907 127.794C179.262 124.578 182.464 120.015 182.697 113.842C182.874 109.188 180.779 106.575 180.284 105.442C180.218 105.289 183.355 102.177 183.265 101.86L185.616 100.676C185.541 100.41 187.877 99.4971 187.845 99.4209L189.659 100.944C191.516 105.105 192.392 109.637 192.22 114.191C191.964 120.932 189.153 130.236 177.214 136.281C170.697 139.58 165.586 141.21 161.637 141.21Z" fill="#F7B686"/>
<path d="M159.701 141.589H134.243C133.985 141.59 133.732 141.511 133.522 141.361C133.311 141.212 133.152 141 133.068 140.756L127.779 125.11C127.718 124.926 127.702 124.729 127.732 124.537C127.763 124.345 127.838 124.163 127.953 124.007C128.068 123.85 128.219 123.723 128.393 123.636C128.567 123.55 128.759 123.506 128.953 123.509H153.434C153.974 123.507 154.502 123.673 154.943 123.986C155.384 124.298 155.716 124.741 155.893 125.252L160.874 139.988C160.935 140.172 160.951 140.369 160.921 140.561C160.891 140.752 160.815 140.934 160.7 141.091C160.585 141.247 160.435 141.374 160.261 141.461C160.087 141.548 159.895 141.592 159.701 141.589Z" fill="#2F1A31"/>
<path d="M158.103 141.589H132.645C132.386 141.59 132.134 141.511 131.923 141.361C131.713 141.212 131.554 141 131.47 140.756L126.181 125.11C126.12 124.926 126.104 124.729 126.134 124.537C126.164 124.345 126.24 124.163 126.355 124.007C126.47 123.85 126.621 123.723 126.795 123.636C126.969 123.55 127.161 123.506 127.355 123.509H151.837C152.377 123.507 152.905 123.674 153.345 123.986C153.786 124.299 154.118 124.741 154.294 125.252L159.276 139.988C159.337 140.172 159.353 140.369 159.323 140.561C159.292 140.752 159.217 140.934 159.102 141.091C158.987 141.247 158.837 141.374 158.663 141.461C158.489 141.548 158.297 141.592 158.103 141.589Z" fill="#2F1A31"/>
<path d="M140.271 132.038C140.271 131.443 140.963 131.201 141.567 131.201C142.172 131.201 143.158 131.853 143.152 132.685C143.152 133.584 142.436 133.701 141.831 133.701C141.226 133.701 140.271 132.793 140.271 132.038Z" fill="#DEEBE9"/>
<path d="M167.477 139.378H132.632V141.589H168.197C168.295 141.589 168.392 141.57 168.482 141.532C168.573 141.495 168.655 141.44 168.724 141.371C168.793 141.302 168.848 141.219 168.885 141.129C168.923 141.039 168.942 140.942 168.942 140.844C168.942 140.455 168.788 140.083 168.513 139.808C168.238 139.533 167.865 139.378 167.477 139.378Z" fill="#2F1A31"/>
<path d="M156.293 131.418C156.281 131.373 155.032 126.734 154.223 125.293C153.414 123.851 152.443 123.591 152.434 123.588L152.477 123.436C152.519 123.446 153.543 123.74 154.366 125.218C155.188 126.696 156.401 131.191 156.451 131.382L156.293 131.418Z" fill="#436E8E"/>
<path d="M160.055 139.461C159.112 139.461 158.877 139.048 158.868 139.03V139.017L156.888 133.149L157.04 133.096L159.021 138.955C159.048 138.994 159.278 139.296 160.061 139.296L160.055 139.461Z" fill="#436E8E"/>
<path d="M184.52 127.646C184.378 127.648 184.237 127.612 184.114 127.541C183.491 127.182 183.504 126.018 184.153 124.906C184.419 124.425 184.793 124.013 185.247 123.704C185.686 123.425 186.102 123.371 186.416 123.551C187.039 123.911 187.025 125.075 186.376 126.187C185.858 127.087 185.116 127.646 184.52 127.646ZM186.007 123.778C185.798 123.79 185.595 123.861 185.424 123.982C185.014 124.262 184.676 124.635 184.438 125.07C183.903 125.996 183.829 126.997 184.278 127.256C184.728 127.515 185.556 126.952 186.091 126.025C186.626 125.099 186.7 124.097 186.243 123.839C186.171 123.799 186.09 123.778 186.007 123.778Z" fill="#E08B65"/>
<path d="M165.292 91.879C163.616 91.8302 162.35 91.6596 161.389 90.5399L158.41 87.074L157.544 86.064L152.448 80.1226L155.124 87.074L156.732 91.2406L157.241 92.56C157.585 93.4557 157.129 93.8732 156.808 94.9198C156.677 95.3448 155.799 97.956 158.088 97.9667C160.938 97.9865 164.544 94.705 165.336 91.8729C165.322 91.8763 165.307 91.8784 165.292 91.879Z" fill="#F7B686"/>
<path d="M159.239 84.8424C159.239 84.8424 164.85 79.5012 161.613 74.9933C158.375 70.4855 157.566 82.2282 157.566 82.2282L158.471 84.9429L159.239 84.8424Z" fill="#2F1A31"/>
<path d="M158.383 86.9507C158.394 86.9903 158.403 87.0299 158.411 87.071C158.932 89.4125 156.75 91.2422 156.75 91.2422L156.732 91.2331L155.125 87.0741C155.807 86.5668 156.812 85.9543 157.544 86.0686C157.926 86.1204 158.234 86.3779 158.383 86.9507Z" fill="#2F1A31"/>
<path d="M146.503 84.0497C145.237 79.8755 147.018 75.6403 150.48 74.5906C153.941 73.541 157.774 76.0745 159.038 80.2487C160.303 84.4229 158.523 88.6566 155.062 89.7062C151.601 90.7559 147.768 88.2224 146.503 84.0497Z" fill="#F7B686"/>
<path d="M157.853 79.6458C157.853 79.6458 156.066 80.9331 154.569 79.8453C153.071 78.7576 152.011 77.7262 148.658 79.3974C145.305 81.0687 141.633 80.3115 140.955 78.4361C140.277 76.5608 141.869 75.112 143.981 75.2064C146.092 75.3009 143.536 74.1553 145 72.1763C146.464 70.1974 150.18 72.2373 152.026 71.2623C153.872 70.2873 160.432 69.4341 161.613 74.9993L157.853 79.6458Z" fill="#2F1A31"/>
<path d="M159.254 80.7604C158.824 81.42 157.997 81.6409 157.409 81.2555C156.821 80.8701 156.693 80.0246 157.123 79.3664C157.552 78.7083 158.381 78.4859 158.969 78.8713C159.557 79.2567 159.685 80.1023 159.254 80.7604Z" fill="#F7B686"/>
<path d="M144.658 77.7803C144.537 77.7809 144.416 77.7666 144.299 77.7376C143.537 77.5487 143.333 77.1572 143.385 76.854C143.445 76.5051 143.872 76.1715 144.544 76.2446C145.543 76.3467 146.09 76.0131 146.096 76.01L146.227 76.2157C146.203 76.2324 145.618 76.5981 144.52 76.4884C144.02 76.4381 143.666 76.6636 143.625 76.9012C143.584 77.1389 143.861 77.3826 144.356 77.5106C145.648 77.8336 147.879 75.8455 147.902 75.8257L148.065 76.0085C147.979 76.0816 146.067 77.7803 144.658 77.7803Z" fill="white"/>
<path d="M150.453 73.1223C149.092 73.1223 147.87 72.5388 147.764 72.4169L147.948 72.2646L147.855 72.3438L147.942 72.257C148.067 72.3621 150.063 73.3234 151.769 72.6561C152.301 72.4401 152.82 72.1939 153.324 71.9188C154.316 71.3993 155.174 70.9514 156.152 71.1403L156.106 71.3795C155.21 71.2073 154.389 71.6369 153.438 72.1412C152.927 72.4214 152.399 72.6711 151.857 72.8892C151.407 73.0531 150.931 73.1321 150.453 73.1223Z" fill="white"/>
<path d="M159.923 74.7038C159.564 74.7038 158.896 74.1463 158.723 73.7898C158.595 73.5323 158.723 73.4135 158.788 73.3754C159.28 73.0707 159.99 74.0259 160.127 74.2209L160.139 74.2377V74.259C160.219 74.5637 160.094 74.652 160.012 74.684C159.983 74.6956 159.954 74.7023 159.923 74.7038ZM159 73.5643C158.971 73.5639 158.942 73.5719 158.918 73.5872C158.907 73.6085 158.93 73.7395 159.178 73.9909C159.509 74.323 159.853 74.4829 159.929 74.4601C159.928 74.4221 159.923 74.3842 159.914 74.3474C159.66 74 159.236 73.5643 158.994 73.5643H159Z" fill="white"/>
<path d="M198.583 151.851C198.099 151.853 197.622 151.727 197.203 151.486C196.841 151.271 196.53 150.979 196.293 150.632C196.056 150.284 195.899 149.888 195.831 149.473C195.674 148.567 195.846 147.634 196.316 146.844C197.302 145.136 199.303 144.44 200.78 145.291C202.256 146.143 202.653 148.225 201.666 149.933C201.216 150.735 200.494 151.35 199.631 151.667C199.295 151.787 198.94 151.849 198.583 151.851ZM199.399 145.256C198.342 145.256 197.239 145.901 196.601 147.008C196.17 147.731 196.012 148.584 196.154 149.414C196.208 149.784 196.346 150.137 196.556 150.446C196.766 150.756 197.043 151.014 197.367 151.201C197.691 151.388 198.053 151.499 198.426 151.526C198.799 151.553 199.174 151.495 199.521 151.356C200.311 151.066 200.971 150.503 201.381 149.769C202.277 148.218 201.933 146.338 200.62 145.576C200.249 145.363 199.827 145.252 199.399 145.256Z" fill="#2F1A31"/>
<path d="M256.147 191.3C255.946 191.743 255.724 192.176 255.481 192.596C255.467 192.618 255.455 192.642 255.443 192.663C254.141 194.901 252.536 196.947 250.673 198.743C249.838 199.554 248.709 200.185 247.382 200.654L247.355 200.665C247.07 200.762 246.777 200.856 246.479 200.939C242.213 202.158 236.342 201.891 231.736 200.575L230.944 200.332C230.549 200.204 230.167 200.069 229.797 199.926C228.73 199.523 227.735 198.951 226.849 198.232C226.749 198.148 226.651 198.066 226.557 197.98C225.614 197.132 224.851 196.104 224.312 194.956C223.774 193.808 223.47 192.564 223.42 191.297L256.147 191.3Z" fill="#74A1BD"/>
<path d="M257.198 185.488V189.692C257.198 192.292 249.302 194.399 239.56 194.399C229.817 194.399 221.927 192.298 221.927 189.698V185.488C221.927 184.169 226.476 183.037 232.923 182.569C234.974 182.417 237.217 182.336 239.566 182.336C249.302 182.343 257.198 183.753 257.198 185.488Z" fill="#436E8E"/>
<path d="M257.198 185.488C257.198 185.743 257.031 185.99 256.717 186.224C254.867 187.608 247.89 188.643 239.56 188.643C237.227 188.643 234.99 188.561 232.96 188.413C226.489 187.946 221.921 186.814 221.921 185.488C221.921 184.163 226.47 183.037 232.918 182.569C234.968 182.417 237.211 182.336 239.56 182.336C249.302 182.343 257.198 183.753 257.198 185.488Z" fill="#060633"/>
<path d="M240.621 141.952C238.93 142.945 238.111 142.703 237.727 142.038C237.343 141.374 237.524 140.542 239.217 139.549C242.299 137.741 244.494 138.067 244.494 138.067C244.494 138.067 243.749 140.116 240.621 141.952Z" fill="#2F1A31"/>
<path d="M240.538 154.666C239.258 156.153 238.405 156.189 237.822 155.686C237.238 155.184 237.147 154.337 238.431 152.848C240.762 150.14 242.943 149.737 242.943 149.737C242.943 149.737 242.902 151.916 240.538 154.666Z" fill="#2F1A31"/>
<path d="M239.752 187.755L239.382 187.721C239.382 187.665 239.855 181.92 237.924 173.506C236.143 165.737 231.898 154.053 221.79 142.451L222.07 142.207C232.234 153.874 236.5 165.63 238.29 173.438C240.234 181.906 239.762 187.697 239.752 187.755Z" fill="#2F1A31"/>
<path d="M232.025 156.856L231.72 156.656C238.993 145.299 234.615 131.51 234.566 131.367L234.919 131.251C234.958 131.396 239.395 145.349 232.025 156.856Z" fill="#2F1A31"/>
<path d="M226.434 150.83C222.662 150.83 219.812 148.943 219.778 148.92L219.986 148.615C220.022 148.64 223.675 151.053 228.134 150.326L228.194 150.692C227.612 150.786 227.024 150.832 226.434 150.83Z" fill="#2F1A31"/>
<path d="M239.129 179.395C231.501 178.526 225.32 174.808 220.756 168.339C220.647 168.176 220.53 168.018 220.404 167.867C220.416 167.875 220.429 167.882 220.442 167.887L220.56 167.533C220.663 167.568 220.729 167.658 221.059 168.126C225.56 174.503 231.653 178.17 239.172 179.025L239.129 179.395Z" fill="#2F1A31"/>
<path d="M228.345 175.39L227.985 175.292C229.303 170.428 226.059 163.274 226.026 163.202L226.364 163.05C226.968 164.433 227.469 165.859 227.865 167.315C228.479 169.553 229.053 172.772 228.345 175.39Z" fill="#2F1A31"/>
<path d="M221.545 140.381C223.509 142.154 223.678 143.143 223.162 143.714C222.645 144.285 221.638 144.221 219.679 142.45C216.101 139.22 215.302 136.627 215.302 136.627C215.302 136.627 217.913 137.105 221.545 140.381Z" fill="#2F1A31"/>
<path d="M220.774 147.719C223.181 148.818 223.64 149.71 223.32 150.41C223 151.109 222.027 151.351 219.62 150.257C215.234 148.257 213.69 146.024 213.69 146.024C213.69 146.024 216.324 145.692 220.774 147.719Z" fill="#2F1A31"/>
<path d="M227.133 161.994C228.03 163.737 227.743 164.542 227.06 164.889C226.377 165.236 225.555 165.008 224.658 163.263C223.02 160.086 223.466 157.913 223.466 157.913C223.466 157.913 225.471 158.771 227.133 161.994Z" fill="#2F1A31"/>
<path d="M230.232 144.915C230.68 146.825 230.205 147.536 229.457 147.712C228.709 147.887 227.968 147.46 227.52 145.55C226.705 142.07 227.673 140.065 227.673 140.065C227.673 140.065 229.405 141.385 230.232 144.915Z" fill="#2F1A31"/>
<path d="M233.256 173.422C233.147 175.381 232.494 175.929 231.732 175.888C230.97 175.847 230.373 175.229 230.481 173.27C230.676 169.702 232.157 168.052 232.157 168.052C232.157 168.052 233.454 169.798 233.256 173.422Z" fill="#2F1A31"/>
<path d="M222.433 168.002C223.684 169.514 223.577 170.361 222.985 170.851C222.392 171.342 221.539 171.288 220.288 169.777C218.003 167.024 217.979 164.806 217.979 164.806C217.979 164.806 220.12 165.208 222.433 168.002Z" fill="#2F1A31"/>
<path d="M235.694 129.752C236.311 132.325 235.889 133.236 235.141 133.408C234.393 133.58 233.602 132.968 232.987 130.395C231.862 125.707 232.682 123.117 232.682 123.117C232.682 123.117 234.554 124.996 235.694 129.752Z" fill="#2F1A31"/>
<path d="M240.023 188.25C240.023 188.25 230.35 152.145 220.651 155.14C210.953 158.135 232.495 177.897 234.972 188.503L240.023 188.25Z" fill="#436E8E"/>
<path d="M238.604 186.62C238.604 186.62 223.802 157.651 214.565 161.977C205.329 166.304 229.62 179.184 233.608 187.755L238.604 186.62Z" fill="#B2C9C6"/>
<path d="M235.746 187.317C230.686 175.908 217.339 165.956 217.205 165.857L217.448 165.527C217.582 165.627 231.016 175.643 236.121 187.149L235.746 187.317Z" fill="#CCDDDB"/>
<path d="M269.223 161.694C269.139 161.9 269.053 162.104 268.961 162.303C268.347 163.666 267.573 164.951 266.658 166.132C265.658 167.418 265.451 168.816 265.524 170.225C265.524 170.265 265.524 170.305 265.524 170.344C265.655 172.442 266.374 174.553 265.981 176.337C265.952 176.462 265.92 176.587 265.879 176.711C265.564 177.69 264.851 178.559 263.442 179.252C258.699 181.572 257.942 181.385 257.52 183.418C257.493 183.539 257.47 183.668 257.446 183.805C257.38 184.194 257.316 184.651 257.238 185.202C257.255 185.404 257.215 185.606 257.123 185.786C257.032 185.967 256.893 186.118 256.72 186.225C255.072 187.457 249.368 188.411 242.264 188.606L241.871 188.616C241.117 188.635 240.347 188.644 239.562 188.644C237.228 188.644 234.992 188.563 232.962 188.414C232.207 186.542 232.192 184.454 232.92 182.571C233.318 181.581 233.885 180.666 234.595 179.869C238.843 175.02 242.255 175.871 241.451 167.29C241.451 167.194 241.433 167.096 241.423 166.996C241.414 166.895 241.407 166.833 241.398 166.75C240.409 157.59 252.785 161.551 255.879 158.457C258.974 155.363 261.079 151.897 266.647 153.257C270.573 154.222 270.696 157.992 269.223 161.694Z" fill="#CFD3A3"/>
<path d="M268.342 154.325C264.179 157.961 260.26 161.868 256.612 166.02C256.507 166.139 256.405 166.258 256.307 166.377C251.616 171.791 248.385 176.584 246.207 180.357C246.143 180.467 246.082 180.577 246.019 180.683C243.666 184.81 242.598 187.646 242.269 188.605L241.875 188.616C242.322 187.278 244.715 180.747 251.571 171.639L251.802 171.334C255.69 166.214 260.976 160.298 268.103 154.043L268.342 154.325Z" fill="#C4C695"/>
<path d="M248.704 169.078C243.629 168.896 241.391 167.25 241.297 167.183L241.519 166.886C241.542 166.903 243.772 168.528 248.718 168.707L248.704 169.078Z" fill="#C4C695"/>
<path d="M251.777 171.73C249.764 170.978 248.12 168.848 247.001 165.571C246.486 164.03 246.124 162.442 245.919 160.83L246.289 160.791C246.298 160.879 247.279 169.651 251.908 171.383L251.777 171.73Z" fill="#C4C695"/>
<path d="M257.137 166.401C256.552 166.401 256.208 166.369 256.193 166.368L256.229 165.999C256.303 165.999 263.527 166.662 269.179 161.639L269.426 161.916C264.87 165.964 259.319 166.401 257.137 166.401Z" fill="#C4C695"/>
<path d="M265.498 170.605C262.942 170.236 261.332 169.081 260.43 168.167C259.86 167.617 259.395 166.968 259.059 166.25L259.403 166.11C259.417 166.144 260.865 169.559 265.545 170.233L265.498 170.605Z" fill="#C4C695"/>
<path d="M255.412 183.965C249.882 183.965 245.872 180.568 245.826 180.528L246.068 180.248C246.119 180.291 251.087 184.492 257.535 183.42L257.596 183.787C256.874 183.906 256.144 183.965 255.412 183.965Z" fill="#C4C695"/>
<path d="M249.923 182.721L249.609 182.525C250.712 180.757 253.283 178.384 259.272 177.112C261.488 176.65 263.742 176.395 266.006 176.35V176.722C265.882 176.716 253.626 176.79 249.923 182.721Z" fill="#C4C695"/>
<path d="M231.729 200.578C233.405 200.436 235.36 200.214 237.438 199.87C237.718 199.825 238.001 199.777 238.285 199.726C244.136 198.678 250.839 196.638 255.44 192.667C255.461 192.65 255.483 192.633 255.504 192.613L255.481 192.597L255.233 192.405C248.575 198.194 237.371 199.87 230.937 200.336L231.729 200.578Z" fill="#436E8E"/>
<path d="M246.475 200.942H246.388C243.38 200.835 240.387 200.478 237.438 199.876L237.519 199.585C237.776 199.637 238.031 199.686 238.28 199.737C241.278 200.315 244.321 200.626 247.374 200.668L246.475 200.942Z" fill="#436E8E"/>
<path d="M244.044 191.3C240.872 193.628 235.512 196.427 226.841 198.235C226.74 198.151 226.643 198.069 226.548 197.984C227.371 197.815 228.164 197.638 228.926 197.452C229.309 197.358 229.688 197.263 230.054 197.166C236.506 195.471 240.759 193.238 243.483 191.3H244.044Z" fill="#436E8E"/>
<path d="M235.007 191.3C234.004 193.296 232.191 195.694 228.928 197.452L228.904 197.466L229.108 197.719C229.439 197.54 229.756 197.355 230.059 197.166C232.358 195.753 234.211 193.72 235.406 191.3H235.007Z" fill="#436E8E"/>
<path d="M194.8 197.414C194.306 196.894 193.863 196.328 193.474 195.725C192.664 194.444 192.471 193.426 192.9 192.701C193.062 192.431 193.252 192.306 193.473 192.331C193.91 192.381 194.424 193.071 194.996 194.383C195.172 194.783 195.327 195.182 195.453 195.513C195.313 194.078 195.149 191.22 195.941 190.256C196.014 190.158 196.108 190.078 196.215 190.02C196.322 189.962 196.441 189.927 196.563 189.919C196.672 189.909 196.781 189.926 196.882 189.97C196.982 190.013 197.07 190.082 197.137 190.169C197.847 191.048 197.205 194.154 196.852 195.606C197.116 195.179 197.489 194.706 197.87 194.651C197.949 194.634 198.031 194.643 198.104 194.677C198.177 194.712 198.237 194.768 198.275 194.84C198.505 195.263 198.187 196.339 197.257 197.41L197.117 197.288C198.031 196.235 198.282 195.242 198.112 194.93C198.092 194.892 198.059 194.862 198.02 194.844C197.981 194.827 197.937 194.823 197.896 194.834C197.405 194.904 196.829 195.968 196.654 196.372L196.479 196.31C196.494 196.261 197.85 191.346 196.992 190.286C196.943 190.223 196.88 190.173 196.807 190.141C196.734 190.109 196.654 190.096 196.575 190.103C196.478 190.11 196.385 190.138 196.3 190.185C196.216 190.232 196.143 190.296 196.086 190.374C195.088 191.593 195.726 196.275 195.732 196.316L195.552 196.357C195.222 195.315 194.2 192.594 193.453 192.509C193.311 192.494 193.184 192.585 193.062 192.789C192.12 194.378 194.907 197.25 194.934 197.279L194.8 197.414Z" fill="#42428E"/>
<path d="M292.069 189.867C292.069 189.867 288.322 186.048 289.613 183.874C290.903 181.7 293.076 188.546 293.076 188.546C293.076 188.546 291.948 180.449 294.285 180.307C296.622 180.166 294.285 188.546 294.285 188.546C294.285 188.546 295.15 186.592 295.996 186.471C296.841 186.351 296.605 188.127 295.091 189.867H292.069Z" fill="#BED5DC"/>
<path d="M292.337 189.963C291.608 189.193 290.952 188.357 290.378 187.466C289.181 185.572 288.896 184.068 289.531 182.997C289.767 182.598 290.053 182.415 290.376 182.452C291.022 182.525 291.781 183.546 292.633 185.484C292.892 186.075 293.12 186.664 293.3 187.159C293.094 185.039 292.855 180.817 294.022 179.39C294.13 179.246 294.267 179.128 294.425 179.042C294.583 178.956 294.757 178.905 294.936 178.892C295.097 178.877 295.259 178.903 295.407 178.968C295.555 179.033 295.685 179.134 295.783 179.262C296.833 180.56 295.884 185.148 295.363 187.297C295.751 186.666 296.303 185.964 296.866 185.884C296.983 185.86 297.105 185.874 297.213 185.924C297.321 185.975 297.409 186.059 297.465 186.165C297.805 186.788 297.336 188.38 295.961 189.961L295.754 189.781C297.105 188.226 297.476 186.757 297.224 186.296C297.195 186.239 297.148 186.195 297.09 186.169C297.032 186.143 296.967 186.139 296.906 186.155C296.179 186.259 295.334 187.831 295.069 188.428L294.813 188.336C294.813 188.317 295.329 186.471 295.673 184.451C296.13 181.808 296.086 180.074 295.57 179.434C295.499 179.34 295.405 179.266 295.296 179.219C295.188 179.172 295.07 179.154 294.953 179.166C294.811 179.176 294.672 179.216 294.547 179.285C294.422 179.354 294.314 179.449 294.229 179.564C292.756 181.364 293.699 188.284 293.71 188.354L293.443 188.413C292.954 186.875 291.443 182.854 290.34 182.728C290.131 182.705 289.941 182.839 289.762 183.142C288.37 185.491 292.488 189.733 292.529 189.775L292.337 189.963Z" fill="#42428E"/>
<path d="M35.2936 194.708C35.2936 194.708 31.5474 190.889 32.8363 188.713C34.1251 186.538 36.3006 193.387 36.3006 193.387C36.3006 193.387 35.1732 185.29 37.5102 185.148C39.8472 185.007 37.5102 193.387 37.5102 193.387C37.5102 193.387 38.3755 191.432 39.221 191.312C40.0665 191.192 39.8304 192.968 38.3146 194.708H35.2936Z" fill="#BED5DC"/>
<path d="M35.5617 194.804C34.8326 194.035 34.1767 193.199 33.6026 192.307C32.4051 190.414 32.1203 188.91 32.7555 187.839C32.9917 187.44 33.2765 187.257 33.601 187.292C34.247 187.367 35.0057 188.388 35.8573 190.325C36.1162 190.916 36.3448 191.506 36.5245 192.001C36.3189 189.881 36.0797 185.659 37.2466 184.232C37.3546 184.088 37.4921 183.969 37.6497 183.884C37.8074 183.798 37.9816 183.746 38.1607 183.733C38.3216 183.719 38.4837 183.745 38.6317 183.81C38.7798 183.875 38.9091 183.976 39.0077 184.104C40.0574 185.402 39.1083 189.99 38.5873 192.137C38.9757 191.508 39.5272 190.805 40.0909 190.726C40.2076 190.701 40.3293 190.715 40.4374 190.765C40.5455 190.816 40.6341 190.901 40.6896 191.006C41.0294 191.629 40.5601 193.221 39.186 194.803L38.9788 194.623C40.3301 193.068 40.7003 191.599 40.4489 191.137C40.42 191.081 40.3726 191.036 40.3146 191.011C40.2566 190.985 40.1916 190.98 40.1305 190.997C39.4038 191.101 38.5583 192.673 38.2932 193.27L38.0373 193.177C38.0373 193.159 38.5538 191.313 38.8981 189.292C39.3459 186.649 39.3109 184.916 38.7945 184.276C38.7232 184.182 38.6291 184.108 38.521 184.061C38.413 184.014 38.2947 183.996 38.1775 184.008C38.0352 184.017 37.8968 184.058 37.7718 184.127C37.6468 184.195 37.5383 184.29 37.4538 184.405C35.9807 186.206 36.9237 193.125 36.9343 193.196L36.6769 193.258C36.1878 191.719 34.6766 187.699 33.5736 187.573C33.3649 187.55 33.1745 187.685 32.9962 187.987C31.6038 190.336 35.7217 194.577 35.7628 194.62L35.5617 194.804Z" fill="#42428E"/>
<path d="M147.339 204.902C147.339 204.902 144.464 201.971 145.453 200.301C146.441 198.632 148.113 203.888 148.113 203.888C148.113 203.888 147.247 197.672 149.04 197.564C150.833 197.456 149.04 203.888 149.04 203.888C149.04 203.888 149.705 202.389 150.354 202.296C151.002 202.203 150.811 203.566 149.659 204.902H147.339Z" fill="#BED5DC"/>
<path d="M148.248 204.998C147.517 204.226 146.86 203.388 146.284 202.495C145.084 200.598 144.799 199.091 145.434 198.017C145.672 197.617 145.957 197.434 146.283 197.47C146.93 197.543 147.69 198.566 148.543 200.51C148.802 201.101 149.032 201.692 149.212 202.185C149.005 200.06 148.766 195.83 149.934 194.401C150.043 194.257 150.18 194.139 150.338 194.052C150.495 193.966 150.669 193.915 150.848 193.901C151.01 193.886 151.172 193.913 151.32 193.977C151.468 194.042 151.598 194.143 151.697 194.271C152.748 195.574 151.798 200.171 151.277 202.324C151.665 201.692 152.218 200.989 152.783 200.909C152.9 200.884 153.022 200.898 153.13 200.948C153.238 200.999 153.326 201.083 153.382 201.189C153.723 201.815 153.252 203.409 151.875 204.998L151.668 204.818C153.022 203.259 153.393 201.786 153.141 201.323C153.112 201.267 153.064 201.222 153.006 201.197C152.948 201.171 152.883 201.166 152.821 201.183C152.096 201.287 151.248 202.859 150.983 203.468L150.724 203.377C150.724 203.358 151.243 201.507 151.587 199.483C152.044 196.835 152.002 195.095 151.484 194.455C151.412 194.361 151.318 194.287 151.21 194.24C151.101 194.193 150.983 194.174 150.865 194.186C150.723 194.196 150.584 194.237 150.459 194.306C150.334 194.375 150.225 194.47 150.14 194.585C148.664 196.389 149.608 203.323 149.619 203.393L149.352 203.454C148.862 201.913 147.349 197.883 146.243 197.757C146.033 197.731 145.842 197.868 145.664 198.171C144.269 200.525 148.394 204.777 148.437 204.819L148.248 204.998Z" fill="#42428E"/>
<path d="M129.393 186.413C129.393 186.413 126.518 183.482 127.507 181.813C128.495 180.143 130.167 185.399 130.167 185.399C130.167 185.399 129.3 179.183 131.093 179.075C132.886 178.967 131.093 185.399 131.093 185.399C131.093 185.399 131.759 183.9 132.408 183.807C133.057 183.714 132.865 185.077 131.711 186.413H129.393Z" fill="#BED5DC"/>
<path d="M128.938 186.034C128.444 185.513 128.001 184.947 127.613 184.343C126.802 183.062 126.609 182.046 127.038 181.321C127.2 181.05 127.392 180.926 127.611 180.951C128.048 181.001 128.562 181.691 129.135 183.003C129.31 183.402 129.465 183.802 129.592 184.132C129.451 182.698 129.287 179.84 130.079 178.876C130.153 178.778 130.246 178.698 130.353 178.64C130.461 178.582 130.579 178.547 130.701 178.539C130.81 178.529 130.92 178.546 131.02 178.59C131.12 178.634 131.208 178.702 131.275 178.789C131.985 179.668 131.342 182.773 130.99 184.226C131.254 183.799 131.627 183.324 132.008 183.271C132.087 183.254 132.169 183.263 132.242 183.297C132.315 183.332 132.375 183.388 132.413 183.46C132.642 183.882 132.325 184.959 131.395 186.03L131.255 185.908C132.169 184.855 132.419 183.862 132.25 183.548C132.23 183.51 132.198 183.48 132.158 183.463C132.119 183.446 132.075 183.442 132.034 183.454C131.543 183.524 130.967 184.589 130.792 184.992L130.617 184.93C130.631 184.88 131.988 179.966 131.13 178.906C131.082 178.843 131.018 178.793 130.945 178.761C130.872 178.729 130.792 178.716 130.713 178.723C130.617 178.731 130.523 178.758 130.438 178.805C130.354 178.851 130.28 178.916 130.222 178.993C129.226 180.212 129.864 184.895 129.87 184.942L129.691 184.983C129.36 183.941 128.338 181.22 127.591 181.135C127.45 181.118 127.322 181.211 127.2 181.415C126.258 183.006 129.043 185.876 129.072 185.903L128.938 186.034Z" fill="#42428E"/>
<path d="M163.568 204.451L163.275 204.396C163.166 204.375 163.069 204.312 163.006 204.22C162.944 204.128 162.92 204.015 162.94 203.905L168.384 175.1L172.84 174.585L164.308 203.958C164.272 204.12 164.174 204.261 164.037 204.353C163.899 204.444 163.731 204.479 163.568 204.451Z" fill="#2F1A31"/>
<path d="M212.145 204.168L212.435 204.096C212.542 204.069 212.634 204 212.691 203.905C212.748 203.81 212.766 203.697 212.739 203.589L205.713 175.129L201.236 174.861L211.371 203.717C211.416 203.878 211.522 204.015 211.667 204.099C211.811 204.183 211.983 204.208 212.145 204.168Z" fill="#2F1A31"/>
<path d="M212.025 175.516C212.025 178.106 201.174 180.196 187.787 180.196C174.401 180.196 163.548 178.1 163.548 175.516C163.548 172.933 174.399 170.838 187.787 170.838C201.175 170.838 212.025 172.933 212.025 175.516Z" fill="#74A1BD"/>
<path d="M212.028 173.661H163.55V175.518H212.028V173.661Z" fill="#74A1BD"/>
<path d="M212.025 173.388C212.025 175.723 201.174 177.617 187.787 177.617C174.401 177.617 163.548 175.723 163.548 173.388C163.548 171.052 174.399 169.159 187.787 169.159C201.175 169.159 212.025 171.052 212.025 173.388Z" fill="#CCDDDB"/>
<path d="M170.178 176.392H170.156C168.389 176.066 166.934 175.696 165.834 175.291C165.82 175.286 165.806 175.278 165.794 175.267C165.783 175.257 165.774 175.244 165.767 175.229C165.761 175.215 165.758 175.2 165.758 175.184C165.758 175.168 165.761 175.153 165.767 175.138C165.772 175.124 165.781 175.11 165.791 175.098C165.802 175.087 165.814 175.078 165.829 175.071C165.843 175.065 165.858 175.061 165.874 175.061C165.89 175.061 165.905 175.064 165.92 175.07C167.315 175.55 168.748 175.915 170.204 176.161C170.232 176.165 170.258 176.181 170.275 176.203C170.293 176.226 170.301 176.255 170.299 176.283C170.296 176.312 170.283 176.339 170.262 176.358C170.241 176.377 170.213 176.388 170.184 176.388L170.178 176.392Z" fill="#42428E"/>
<path d="M187.789 177.719C187.773 177.72 187.757 177.719 187.741 177.714C187.725 177.709 187.711 177.701 187.699 177.69C187.687 177.679 187.677 177.666 187.67 177.651C187.664 177.636 187.66 177.62 187.66 177.603C187.66 177.587 187.664 177.571 187.67 177.556C187.677 177.541 187.687 177.528 187.699 177.517C187.711 177.506 187.725 177.498 187.741 177.493C187.757 177.488 187.773 177.487 187.789 177.488C190.432 177.488 193.031 177.415 195.512 177.269C197.591 177.147 199.567 176.977 201.386 176.76C201.414 176.76 201.442 176.77 201.463 176.789C201.485 176.808 201.499 176.834 201.502 176.862C201.505 176.891 201.498 176.919 201.482 176.942C201.465 176.966 201.441 176.982 201.413 176.989C199.585 177.205 197.605 177.376 195.525 177.498C193.04 177.641 190.437 177.719 187.789 177.719Z" fill="#42428E"/>
<path d="M206.826 176.104C206.798 176.104 206.771 176.093 206.751 176.074C206.73 176.055 206.717 176.03 206.714 176.002C206.711 175.974 206.718 175.947 206.734 175.924C206.75 175.901 206.774 175.885 206.801 175.879C211.248 174.894 211.913 173.886 211.913 173.373C211.913 173.342 211.925 173.313 211.946 173.292C211.968 173.27 211.997 173.258 212.027 173.258C212.057 173.258 212.086 173.27 212.108 173.292C212.129 173.313 212.141 173.342 212.141 173.373C212.141 174.661 209.263 175.568 206.85 176.103L206.826 176.104Z" fill="#42428E"/>
<path d="M151.514 82.351C151.487 82.3473 151.461 82.335 151.441 82.3159C151.421 82.2968 151.407 82.2719 151.402 82.2446C151.397 82.2174 151.4 82.1891 151.412 82.1639C151.423 82.1388 151.443 82.1179 151.467 82.1042C151.736 81.933 152.054 81.8561 152.372 81.8856C152.689 81.9151 152.988 82.0494 153.22 82.2673C153.234 82.2782 153.245 82.2917 153.253 82.307C153.262 82.3223 153.267 82.3391 153.268 82.3563C153.27 82.3736 153.268 82.3911 153.263 82.4077C153.258 82.4243 153.25 82.4398 153.239 82.4531C153.215 82.4781 153.184 82.4939 153.149 82.4975C153.115 82.5012 153.081 82.4924 153.053 82.4729C152.595 82.2689 152.084 82.2207 151.596 82.3358C151.572 82.3504 151.542 82.3558 151.514 82.351Z" fill="#060633"/>
<path d="M152.741 83.6689C152.791 83.9812 152.646 84.2645 152.419 84.3011C152.192 84.3376 151.962 84.1137 151.918 83.7999C151.874 83.486 152.011 83.2042 152.238 83.1692C152.465 83.1341 152.69 83.3565 152.741 83.6689Z" fill="#060633"/>
<path d="M146.877 84.0272C146.86 84.0306 146.843 84.0296 146.827 84.0243C146.81 84.0189 146.796 84.0094 146.784 83.9968C146.761 83.9724 146.746 83.9415 146.741 83.9082C146.736 83.8749 146.742 83.8409 146.757 83.8109C146.811 83.6952 146.889 83.592 146.984 83.5075C147.08 83.4231 147.193 83.3593 147.314 83.3202C147.436 83.281 147.564 83.2673 147.691 83.2799C147.818 83.2925 147.942 83.3312 148.053 83.3935C148.083 83.4088 148.107 83.4335 148.121 83.4638C148.136 83.4941 148.139 83.5283 148.132 83.5611C148.13 83.575 148.125 83.5883 148.118 83.6C148.11 83.6118 148.1 83.6218 148.088 83.6293C148.076 83.6369 148.063 83.6417 148.049 83.6436C148.035 83.6455 148.021 83.6444 148.008 83.6403C147.814 83.6188 147.617 83.6385 147.431 83.6981C147.245 83.7577 147.074 83.8558 146.929 83.9861C146.917 84.0059 146.899 84.0206 146.877 84.0272Z" fill="#060633"/>
<path d="M148.54 84.7614C148.705 85.0311 148.68 85.348 148.484 85.4683C148.287 85.5887 147.995 85.4683 147.83 85.1956C147.666 84.9229 147.69 84.6091 147.885 84.4887C148.08 84.3684 148.374 84.4842 148.54 84.7614Z" fill="#060633"/>
<path d="M152.338 88.0874C152.069 88.0903 151.799 88.0627 151.536 88.0051C151.524 88.0022 151.513 87.997 151.503 87.9899C151.493 87.9827 151.485 87.9737 151.479 87.9634C151.473 87.9531 151.469 87.9416 151.467 87.9297C151.465 87.9178 151.466 87.9056 151.469 87.8939C151.471 87.8822 151.477 87.8712 151.484 87.8615C151.491 87.8518 151.5 87.8436 151.51 87.8374C151.521 87.8311 151.532 87.827 151.544 87.8252C151.556 87.8234 151.568 87.824 151.58 87.8269C151.673 87.8497 153.833 88.3723 154.896 86.5106C154.911 86.4971 154.93 86.4887 154.95 86.4868C154.97 86.4848 154.99 86.4894 155.007 86.4999C155.024 86.5104 155.038 86.5262 155.045 86.5449C155.053 86.5635 155.054 86.5841 155.049 86.6035C154.342 87.8543 153.137 88.0874 152.338 88.0874Z" fill="#020202"/>
<path d="M155.246 86.9213C155.227 86.9211 155.208 86.9148 155.192 86.9034C155.176 86.8919 155.164 86.8758 155.158 86.8573C155.117 86.7294 154.99 86.5343 154.631 86.3302L154.605 86.315C154.589 86.2999 154.579 86.2796 154.576 86.2577C154.574 86.2359 154.579 86.2138 154.591 86.1955C154.604 86.1772 154.622 86.1639 154.643 86.1578C154.664 86.1518 154.687 86.1535 154.707 86.1626L154.722 86.1718C155.051 86.3592 155.259 86.5709 155.332 86.8025C155.339 86.8259 155.337 86.8513 155.326 86.8732C155.315 86.8951 155.295 86.9118 155.272 86.9198C155.264 86.9216 155.255 86.9221 155.246 86.9213Z" fill="#020202"/>
<path d="M74.7021 147.133L66.2668 146.851L56.7057 147.098L56.6813 147.818L65.9271 147.403C66.8579 147.433 67.5831 148.283 67.5496 149.302C67.5145 150.32 66.7345 151.12 65.8052 151.089L56.5808 150.785L56.5625 151.318L74.5391 151.918C75.7457 151.958 76.7603 150.92 76.8045 149.598C76.8517 148.279 75.9087 147.174 74.7021 147.133Z" fill="#E28569"/>
<path d="M68.3646 149.318C68.4088 147.995 67.4673 146.892 66.2607 146.851L56.7057 147.098L56.6813 147.818L65.9271 147.403C66.8579 147.433 67.5831 148.283 67.5496 149.302C67.5145 150.32 66.7345 151.12 65.8052 151.089L56.5808 150.785L56.5625 151.318L66.1053 151.636C67.3134 151.677 68.3265 150.64 68.3646 149.318Z" fill="#E28569"/>
<path d="M65.9269 147.41L56.6796 147.819C57.5144 147.954 57.7658 148.801 57.8816 149.253C58.1162 150.167 57.4246 150.699 56.5806 150.776V150.789L65.805 151.093C66.7343 151.125 67.5143 150.332 67.5494 149.306C67.5844 148.292 66.8592 147.44 65.9269 147.41Z" fill="#E6EDFF"/>
<path d="M57.7247 149.064L57.7231 149.114L65.1713 149.337L65.1728 149.287L57.7247 149.064Z" fill="#2F1A31"/>
<g opacity="0.4">
<path d="M67.4767 151.412C67.455 151.413 67.4338 151.406 67.4164 151.393C67.3989 151.38 67.3861 151.362 67.3797 151.341C67.3734 151.321 67.3739 151.298 67.3812 151.278C67.3885 151.258 67.4022 151.24 67.4203 151.228C67.4279 151.228 68.1546 150.718 68.2704 149.309C68.3862 147.899 67.4051 147.372 67.3959 147.368C67.3842 147.362 67.3738 147.353 67.3654 147.343C67.357 147.333 67.3506 147.321 67.3467 147.308C67.3428 147.296 67.3415 147.282 67.3427 147.269C67.344 147.256 67.3478 147.243 67.354 147.231C67.3602 147.22 67.3687 147.209 67.3789 147.201C67.3891 147.192 67.4009 147.186 67.4135 147.182C67.4262 147.178 67.4395 147.177 67.4527 147.178C67.4659 147.179 67.4787 147.183 67.4904 147.189C67.5361 147.214 68.5979 147.799 68.4715 149.322C68.345 150.846 67.5574 151.37 67.5315 151.393C67.5155 151.404 67.4964 151.411 67.4767 151.412Z" fill="#436E8E"/>
</g>
<path d="M57.8848 149.28L57.8833 149.228L63.6038 149.133V149.184L57.8848 149.28Z" fill="#2F1A31"/>
<g opacity="0.4">
<path d="M70.4516 150.907L68.6478 150.847C68.6306 150.847 68.6138 150.842 68.5992 150.832C68.5845 150.823 68.5724 150.811 68.564 150.796C68.555 150.781 68.5503 150.764 68.5503 150.746C68.5503 150.729 68.555 150.712 68.564 150.697C68.7819 150.296 68.9483 149.87 69.0592 149.428C69.2344 148.73 68.7545 148.005 68.7545 147.997C68.7453 147.982 68.7403 147.964 68.7401 147.946C68.7399 147.929 68.7445 147.911 68.7533 147.895C68.7621 147.88 68.775 147.867 68.7904 147.858C68.8059 147.849 68.8235 147.845 68.8413 147.845L70.5521 147.903C70.5678 147.903 70.5831 147.907 70.5969 147.914C70.6106 147.922 70.6225 147.932 70.6314 147.945C71.6978 149.469 70.543 150.863 70.5308 150.876C70.5208 150.887 70.5084 150.895 70.4947 150.901C70.481 150.906 70.4662 150.908 70.4516 150.907ZM68.8215 150.657L70.412 150.71C70.5811 150.491 71.3519 149.37 70.4988 148.104L69.0196 148.053C69.1719 148.326 69.405 148.902 69.2603 149.482C69.157 149.889 69.0099 150.283 68.8215 150.657Z" fill="#436E8E"/>
</g>
<path d="M56.7754 151.364H65.2168L74.7643 151.932V152.653L65.5352 151.932C64.6044 151.932 63.8595 152.758 63.8595 153.775C63.8595 154.795 64.612 155.62 65.5352 155.62H74.7627V156.153H56.7754C55.5689 156.153 54.5908 155.087 54.5908 153.759C54.5908 152.439 55.5673 151.364 56.7754 151.364Z" fill="#436E8E"/>
<path d="M63.0322 153.762C63.0322 152.439 64.0103 151.367 65.2184 151.367L74.7658 151.935V152.656L65.5368 151.935C64.6059 151.935 63.861 152.761 63.861 153.778C63.861 154.797 64.6136 155.623 65.5368 155.623H74.7627V156.156H65.2168C64.0088 156.156 63.0322 155.084 63.0322 153.762Z" fill="#436E8E"/>
<path d="M65.5352 151.937L74.7642 152.656C73.9248 152.761 73.6445 153.599 73.515 154.048C73.2499 154.962 73.9248 155.507 74.7642 155.613V155.625H65.5352C64.6044 155.625 63.8594 154.799 63.8594 153.781C63.8518 152.762 64.6044 151.937 65.5352 151.937Z" fill="#E6EDFF"/>
<path d="M73.4648 154.467H66.0151V154.517H73.4648V154.467Z" fill="#2F1A31"/>
<path d="M63.7945 155.865C63.7625 155.842 62.9992 155.283 62.9246 153.766C62.8499 152.249 63.9316 151.685 63.9773 151.664L64.0657 151.843C64.0245 151.865 63.0571 152.358 63.1257 153.757C63.1942 155.155 63.9042 155.696 63.9118 155.702L63.7945 155.865Z" fill="#2F1A31"/>
<path d="M73.5136 154.073L67.8022 153.788L67.8038 153.736L73.5167 154.022L73.5136 154.073Z" fill="#2F1A31"/>
<path d="M60.9001 152.375H62.6124C62.6124 152.375 62.0807 153.12 62.2422 153.874C62.3376 154.329 62.4912 154.77 62.6992 155.186H60.9001C60.9001 155.186 59.8154 153.824 60.9001 152.375Z" fill="#2F1A31"/>
<path d="M157.547 101.876L157.536 101.466C164.849 101.258 167.481 94.9902 167.507 94.9277L167.886 95.0801C167.323 96.314 166.546 97.438 165.589 98.3997C164.105 99.9231 161.505 101.763 157.547 101.876Z" fill="#CC6E58"/>
<path d="M161.03 105.384L160.813 105.035C160.85 105.012 164.581 102.643 165.062 98.4082L165.469 98.4554C164.965 102.892 161.069 105.355 161.03 105.384Z" fill="#CC6E58"/>
<path d="M144.718 106.497L143.217 111.021L143.606 111.15L145.107 106.626L144.718 106.497Z" fill="#CC6E58"/>
<path d="M266.891 123.615C266.866 123.615 266.841 123.612 266.818 123.605C266.787 123.595 266.759 123.579 266.735 123.558C266.711 123.538 266.692 123.512 266.678 123.484C266.663 123.456 266.655 123.425 266.653 123.393C266.651 123.362 266.655 123.33 266.665 123.3C268.53 117.435 273.879 113.618 273.932 113.58C273.984 113.544 274.048 113.529 274.111 113.54C274.173 113.551 274.229 113.586 274.266 113.638C274.302 113.69 274.317 113.754 274.306 113.817C274.295 113.88 274.26 113.935 274.208 113.972C274.156 114.008 268.937 117.736 267.121 123.445C267.106 123.494 267.075 123.537 267.034 123.568C266.993 123.599 266.942 123.615 266.891 123.615Z" fill="#74A1BD"/>
<path d="M262.806 135.111C262.782 135.112 262.759 135.108 262.736 135.101C262.706 135.091 262.678 135.075 262.654 135.054C262.63 135.033 262.611 135.008 262.597 134.98C262.583 134.952 262.574 134.921 262.572 134.889C262.57 134.858 262.574 134.826 262.584 134.796L264.279 129.29C264.288 129.259 264.302 129.23 264.322 129.205C264.342 129.179 264.366 129.158 264.394 129.143C264.423 129.127 264.454 129.117 264.485 129.114C264.517 129.111 264.55 129.114 264.581 129.123C264.611 129.133 264.64 129.148 264.664 129.169C264.689 129.19 264.709 129.215 264.724 129.244C264.738 129.272 264.747 129.304 264.749 129.336C264.751 129.368 264.747 129.4 264.736 129.43L263.039 134.942C263.024 134.992 262.993 135.035 262.951 135.065C262.909 135.096 262.858 135.112 262.806 135.111Z" fill="#74A1BD"/>
<path d="M147.794 89.2357C147.703 89.2355 147.611 89.2294 147.521 89.2174C146.538 89.0848 145.516 88.2606 144.788 87.0129C143.603 84.9807 143.551 82.4335 144.671 81.3351C144.868 81.1361 145.11 80.9868 145.376 80.8994C145.643 80.812 145.926 80.789 146.203 80.8323C147.186 80.9649 148.208 81.7891 148.936 83.0368C150.122 85.069 150.173 87.6162 149.054 88.7146C148.889 88.8809 148.692 89.0125 148.476 89.102C148.26 89.1915 148.028 89.2369 147.794 89.2357ZM145.934 81.0898C145.735 81.0889 145.539 81.1275 145.356 81.2033C145.173 81.2792 145.007 81.3908 144.867 81.5316C143.831 82.5477 143.904 84.9441 145.029 86.8728C145.716 88.0489 146.662 88.8228 147.561 88.9432C147.796 88.9802 148.037 88.961 148.263 88.8871C148.489 88.8132 148.695 88.6868 148.863 88.5181C149.899 87.502 149.826 85.1056 148.702 83.1754C148.016 82.0008 147.069 81.2269 146.17 81.1066C146.091 81.0956 146.013 81.09 145.934 81.0898Z" fill="white"/>
<g opacity="0.3">
<path d="M155.607 80.0538C156.566 82.0739 156.301 84.5312 155.015 85.5382C153.729 86.5452 151.907 85.7332 150.949 83.7101C149.991 81.687 150.254 79.2312 151.541 78.2257C152.829 77.2202 154.648 78.0337 155.607 80.0538Z" fill="white"/>
</g>
<g opacity="0.3">
<path d="M149.033 83.1998C149.995 85.2305 149.866 87.6924 148.742 88.7009C147.617 89.7094 145.928 88.8807 144.965 86.8515C144.002 84.8222 144.132 82.3588 145.256 81.3503C146.38 80.3418 148.07 81.1705 149.033 83.1998Z" fill="white"/>
</g>
<path d="M153.576 86.0868C153.385 86.0862 153.195 86.0632 153.009 86.0182C151.981 85.776 151.046 84.9168 150.444 83.6614C149.408 81.5058 149.72 78.8565 151.142 77.7581C151.414 77.5412 151.733 77.3903 152.073 77.3171C152.414 77.2439 152.766 77.2504 153.104 77.3361C154.132 77.5799 155.067 78.4391 155.671 79.6929C156.707 81.8501 156.393 84.4978 154.971 85.5977C154.574 85.9128 154.083 86.085 153.576 86.0868ZM152.542 77.5448C152.094 77.5454 151.661 77.6974 151.311 77.976C149.987 78.9997 149.71 81.4966 150.692 83.5426C151.25 84.705 152.139 85.5231 153.073 85.7501C153.371 85.8258 153.681 85.8319 153.981 85.7676C154.281 85.7034 154.562 85.5707 154.802 85.3799C156.126 84.3561 156.405 81.8577 155.422 79.8117C154.863 78.6508 153.974 77.8312 153.04 77.6042C152.877 77.5652 152.709 77.5453 152.542 77.5448Z" fill="white"/>
<path d="M148.868 84.0653C148.82 84.0648 148.774 84.0511 148.733 84.0256C148.693 84.0002 148.661 83.9641 148.64 83.9213C148.619 83.8785 148.61 83.8307 148.614 83.7832C148.619 83.7357 148.637 83.6904 148.665 83.6524C148.693 83.6159 149.362 82.7688 150.789 82.7384C150.857 82.7367 150.924 82.7623 150.973 82.8095C151.022 82.8566 151.051 82.9214 151.053 82.9897C151.054 83.058 151.029 83.1241 150.982 83.1736C150.934 83.223 150.87 83.2517 150.801 83.2533C149.63 83.2822 149.094 83.9434 149.071 83.9723C149.046 84.002 149.015 84.0258 148.98 84.0419C148.945 84.058 148.907 84.066 148.868 84.0653Z" fill="white"/>
<path d="M204.195 166.597H204.174C204.087 166.59 204.006 166.548 203.949 166.482C203.892 166.416 203.863 166.331 203.869 166.243C203.869 166.148 204.021 163.867 205.299 161.172C206.101 159.433 207.25 157.876 208.676 156.598C210.101 155.319 211.773 154.345 213.588 153.736C213.67 153.714 213.757 153.723 213.832 153.763C213.907 153.802 213.964 153.869 213.992 153.949C214.02 154.029 214.016 154.116 213.981 154.194C213.947 154.271 213.884 154.332 213.806 154.365C205.185 157.342 204.538 166.196 204.533 166.285C204.528 166.37 204.489 166.45 204.426 166.508C204.363 166.567 204.281 166.598 204.195 166.597Z" fill="#5986B2"/>
<path d="M275.783 119.513C275.721 119.513 275.661 119.496 275.608 119.464C275.555 119.431 275.513 119.385 275.485 119.33C275.457 119.275 275.445 119.213 275.451 119.151C275.457 119.09 275.479 119.031 275.516 118.981C275.693 118.744 279.899 113.171 283.869 113.863C287.952 114.576 287.434 118.585 287.428 118.625C287.424 118.67 287.411 118.714 287.39 118.754C287.369 118.794 287.339 118.83 287.304 118.858C287.268 118.886 287.228 118.907 287.184 118.919C287.14 118.931 287.094 118.934 287.049 118.928C287.004 118.921 286.961 118.906 286.922 118.882C286.883 118.859 286.85 118.827 286.823 118.79C286.797 118.753 286.779 118.711 286.769 118.667C286.76 118.622 286.76 118.577 286.769 118.532C286.788 118.393 287.198 115.119 283.755 114.518C280.19 113.896 276.091 119.324 276.05 119.379C276.019 119.421 275.979 119.455 275.932 119.478C275.886 119.501 275.835 119.513 275.783 119.513Z" fill="#5986B2"/>
</svg>
