<svg width="50" height="50" viewBox="0 0 50 50" fill="none" xmlns="http://www.w3.org/2000/svg">
<rect width="50" height="50" rx="25" fill="#F07979"/>
<path d="M37.5005 33.75V37.5H12.5005V33.75C12.5005 33.0625 13.063 32.5 13.7505 32.5H36.2505C36.938 32.5 37.5005 33.0625 37.5005 33.75Z" fill="#FDD2BE" stroke="#FDD2BE" stroke-width="1.5" stroke-miterlimit="10" stroke-linecap="round" stroke-linejoin="round"/>
<path d="M18.7505 23.7503H16.2505V32.5003H18.7505V23.7503Z" fill="#FDD2BE"/>
<path d="M23.75 23.7503H21.25V32.5003H23.75V23.7503Z" fill="#FDD2BE"/>
<path d="M28.7495 23.7503H26.2495V32.5003H28.7495V23.7503Z" fill="#FDD2BE"/>
<path d="M33.7505 23.7503H31.2505V32.5003H33.7505V23.7503Z" fill="#FDD2BE"/>
<path d="M38.7495 38.4372H11.2495C10.737 38.4372 10.312 38.0122 10.312 37.4997C10.312 36.9872 10.737 36.5622 11.2495 36.5622H38.7495C39.262 36.5622 39.687 36.9872 39.687 37.4997C39.687 38.0122 39.262 38.4372 38.7495 38.4372Z" fill="#FDD2BE"/>
<path d="M36.713 17.1879L25.463 12.6879C25.213 12.5879 24.788 12.5879 24.538 12.6879L13.288 17.1879C12.8505 17.3629 12.5005 17.8754 12.5005 18.3504V22.5004C12.5005 23.1879 13.063 23.7504 13.7505 23.7504H36.2505C36.938 23.7504 37.5005 23.1879 37.5005 22.5004V18.3504C37.5005 17.8754 37.1505 17.3629 36.713 17.1879ZM25.0005 20.6254C23.963 20.6254 23.1255 19.7879 23.1255 18.7504C23.1255 17.7129 23.963 16.8754 25.0005 16.8754C26.038 16.8754 26.8755 17.7129 26.8755 18.7504C26.8755 19.7879 26.038 20.6254 25.0005 20.6254Z" fill="#FDD2BE"/>
</svg>
