<svg width="149" height="60" viewBox="0 0 149 60" fill="none" xmlns="http://www.w3.org/2000/svg">
<path d="M24.0434 59.0779C24.0434 45.4135 29.4716 32.3087 39.1338 22.6465C48.796 12.9843 61.9007 7.55614 75.5652 7.55613C89.2296 7.55613 102.334 12.9843 111.997 22.6465C121.659 32.3087 127.087 45.4134 127.087 59.0779L120.863 59.0779C120.863 47.0642 116.09 35.5426 107.595 27.0477C99.1004 18.5528 87.5788 13.7804 75.5652 13.7804C63.5515 13.7804 52.0299 18.5528 43.535 27.0477C35.0401 35.5426 30.2677 47.0642 30.2677 59.0779L24.0434 59.0779Z" fill="#38CB89"/>
<path d="M24.0434 59.0779C24.0434 50.179 26.3483 41.4318 30.7336 33.6885C35.1189 25.9451 41.435 19.4696 49.0667 14.8928L52.1986 20.1151C45.4689 24.151 39.8993 29.8612 36.0323 36.6893C32.1654 43.5174 30.1329 51.2308 30.1329 59.0779L24.0434 59.0779Z" fill="#3F6A83"/>
</svg>
