<svg width="14" height="14" viewBox="0 0 14 14" fill="none" xmlns="http://www.w3.org/2000/svg">
<path d="M7 11.9582C9.89946 11.9582 12.25 9.53092 12.25 7.87484C12.25 6.21875 9.89946 3.7915 7 3.7915C4.10054 3.7915 1.75 6.2205 1.75 7.87484C1.75 9.52917 4.10054 11.9582 7 11.9582Z" stroke="#333333" stroke-width="1.3" stroke-linejoin="round"/>
<path d="M7 9.625C7.46413 9.625 7.90925 9.44063 8.23744 9.11244C8.56563 8.78425 8.75 8.33913 8.75 7.875C8.75 7.41087 8.56563 6.96575 8.23744 6.63756C7.90925 6.30937 7.46413 6.125 7 6.125C6.53587 6.125 6.09075 6.30937 5.76256 6.63756C5.43437 6.96575 5.25 7.41087 5.25 7.875C5.25 8.33913 5.43437 8.78425 5.76256 9.11244C6.09075 9.44063 6.53587 9.625 7 9.625V9.625Z" stroke="#333333" stroke-width="1.3" stroke-linejoin="round"/>
<path d="M7.00261 2.0415V3.7915M3.86865 3.28575L4.62524 4.34159L3.86865 3.28575ZM10.3906 3.41525L9.63374 4.47109L10.3906 3.41525Z" stroke="#333333" stroke-width="1.3" stroke-linecap="round"/>
</svg>
