<svg width="12" height="14" viewBox="0 0 12 14" fill="none" xmlns="http://www.w3.org/2000/svg">
<path d="M6.03502 0.923211C6.24502 0.403211 6.83002 -0.156789 7.58102 0.0522112C8.17102 0.216211 8.55402 0.572211 8.77402 1.04821C8.97802 1.49121 9.02802 2.01321 9.03802 2.51021C9.04802 3.04521 8.93603 3.68621 8.80503 4.24821C8.74653 4.49655 8.68151 4.7433 8.61002 4.98821H9.99502C10.3058 4.98823 10.6122 5.06066 10.8901 5.19975C11.168 5.33884 11.4096 5.54076 11.5959 5.78951C11.7821 6.03826 11.9078 6.32698 11.9631 6.63278C12.0183 6.93857 12.0015 7.25303 11.914 7.55121L10.55 12.1972C10.4564 12.516 10.3002 12.813 10.0906 13.0708C9.88088 13.3285 9.62192 13.5419 9.32882 13.6984C9.03572 13.8549 8.71436 13.9514 8.38353 13.9823C8.05269 14.0132 7.71902 13.9778 7.40202 13.8782L2.04602 12.1962C1.75627 12.1052 1.49105 11.9494 1.27048 11.7406C1.04991 11.5318 0.879792 11.2755 0.773024 10.9912L0.253024 9.60721C0.0875361 9.16675 0.0826432 8.68203 0.239206 8.23832C0.395769 7.7946 0.703762 7.42029 1.10902 7.18121L2.98102 6.07721C3.16966 5.92802 3.34469 5.76237 3.50402 5.58221C3.84802 5.19321 4.32102 4.54621 4.79602 3.53721C5.00102 3.10121 5.17302 2.75821 5.32902 2.44721C5.58202 1.94421 5.79402 1.52321 6.03502 0.923211Z" fill="#D30000"/>
</svg>
