<svg width="51" height="50" viewBox="0 0 51 50" fill="none" xmlns="http://www.w3.org/2000/svg">
<g opacity="0.7">
<path d="M24.9793 7.81266C23.1421 7.81246 21.3454 8.35204 19.8123 9.36438C18.2792 10.3767 17.0774 11.8172 16.356 13.5068C15.6347 15.1965 15.4258 17.0608 15.7551 18.8682C16.0844 20.6756 16.9375 22.3464 18.2085 23.6731V24.1179C17.2018 23.8729 16.1555 23.8375 15.1345 24.0137C13.7414 22.0103 12.9964 19.6278 13.0001 17.1877C13.0001 10.572 18.3637 5.2085 24.9793 5.2085C31.5949 5.2085 36.9585 10.572 36.9585 17.1877C36.9602 18.7138 36.6695 20.2261 36.1022 21.6429C35.998 21.6158 35.8939 21.5908 35.7866 21.5679L33.5105 21.0793C34.1622 19.651 34.4448 18.0819 34.3323 16.516C34.2199 14.95 33.7159 13.4374 32.8668 12.1169C32.0176 10.7964 30.8504 9.71033 29.4723 8.95827C28.0942 8.20622 26.5493 7.8123 24.9793 7.81266ZM24.9793 12.5002C23.7361 12.5002 22.5438 12.994 21.6647 13.8731C20.7856 14.7522 20.2918 15.9445 20.2918 17.1877V27.0502L18.3439 26.3335C15.0751 25.1304 11.5178 27.196 10.9428 30.6325C10.8705 31.0721 10.9455 31.5233 11.1561 31.9158C11.3667 32.3084 11.7011 32.6204 12.1074 32.8033C19.7043 36.2272 22.9355 39.446 24.0616 41.8554C24.571 42.946 25.7522 43.9002 27.221 43.7283L33.723 42.9668C34.5985 42.8644 35.4236 42.503 36.0924 41.9288C36.7612 41.3546 37.2434 40.5938 37.4772 39.7439L39.8678 31.0491C40.0839 30.263 40.1372 29.4411 40.0245 28.6337C39.9118 27.8263 39.6355 27.0504 39.2125 26.3535C38.7894 25.6566 38.2286 25.0535 37.5643 24.5809C36.8999 24.1084 36.1462 23.7764 35.3491 23.6054L29.6668 22.3856V17.1877C29.6668 15.9445 29.1729 14.7522 28.2938 13.8731C27.4148 12.994 26.2225 12.5002 24.9793 12.5002Z" fill="white"/>
</g>
</svg>
