<svg width="213" height="213" viewBox="0 0 213 213" fill="none" xmlns="http://www.w3.org/2000/svg">
<path fill-rule="evenodd" clip-rule="evenodd" d="M106.5 169.001C141.018 169.001 169.001 141.018 169.001 106.5C169.001 71.9823 141.018 44 106.5 44C71.9823 44 44 71.9823 44 106.5C44 141.018 71.9823 169.001 106.5 169.001Z" fill="#77E6B6" fill-opacity="0.07"/>
<path fill-rule="evenodd" clip-rule="evenodd" d="M106.5 213C165.318 213 213 165.318 213 106.5C213 47.6817 165.318 0 106.5 0C47.6817 0 0 47.6817 0 106.5C0 165.318 47.6817 213 106.5 213Z" fill="#77E6B6" fill-opacity="0.07"/>
<path fill-rule="evenodd" clip-rule="evenodd" d="M106.609 139.218C124.618 139.218 139.218 124.618 139.218 106.609C139.218 88.5995 124.618 74 106.609 74C88.5995 74 74 88.5995 74 106.609C74 124.618 88.5995 139.218 106.609 139.218Z" fill="#77E6B6" fill-opacity="0.07"/>
<circle cx="106.825" cy="106.825" r="45.8253" fill="#006969"/>
<path d="M126.833 121.583V127.833H85.166V121.583C85.166 120.437 86.1035 119.5 87.2493 119.5H124.749C125.895 119.5 126.833 120.437 126.833 121.583Z" fill="white" stroke="white" stroke-width="1.5" stroke-miterlimit="10" stroke-linecap="round" stroke-linejoin="round"/>
<path d="M95.5827 104.917H91.416V119.5H95.5827V104.917Z" fill="white"/>
<path d="M103.917 104.917H99.75V119.5H103.917V104.917Z" fill="white"/>
<path d="M112.251 104.917H108.084V119.5H112.251V104.917Z" fill="white"/>
<path d="M120.583 104.917H116.416V119.5H120.583V104.917Z" fill="white"/>
<path d="M128.917 129.396H83.084C82.2298 129.396 81.5215 128.688 81.5215 127.833C81.5215 126.979 82.2298 126.271 83.084 126.271H128.917C129.771 126.271 130.48 126.979 130.48 127.833C130.48 128.688 129.771 129.396 128.917 129.396Z" fill="white"/>
<path d="M125.52 93.9795L106.77 86.4795C106.354 86.3128 105.645 86.3128 105.229 86.4795L86.4785 93.9795C85.7493 94.2712 85.166 95.1253 85.166 95.917V102.834C85.166 103.979 86.1035 104.917 87.2493 104.917H124.749C125.895 104.917 126.833 103.979 126.833 102.834V95.917C126.833 95.1253 126.249 94.2712 125.52 93.9795ZM105.999 99.7087C104.27 99.7087 102.874 98.3128 102.874 96.5837C102.874 94.8545 104.27 93.4587 105.999 93.4587C107.729 93.4587 109.124 94.8545 109.124 96.5837C109.124 98.3128 107.729 99.7087 105.999 99.7087Z" fill="white"/>
</svg>
