<svg width="14" height="14" viewBox="0 0 14 14" fill="none" xmlns="http://www.w3.org/2000/svg">
<path d="M10.7742 9.81735L11.0017 11.6607C11.0601 12.1448 10.5409 12.4832 10.1267 12.2323L7.68257 10.7798C7.41424 10.7798 7.15175 10.7623 6.89508 10.7273C7.32675 10.2198 7.58341 9.57816 7.58341 8.88399C7.58341 7.22733 6.14841 5.88569 4.37507 5.88569C3.69841 5.88569 3.07424 6.07817 2.55508 6.4165C2.53758 6.27067 2.53174 6.12483 2.53174 5.97316C2.53174 3.319 4.83591 1.1665 7.68257 1.1665C10.5292 1.1665 12.8334 3.319 12.8334 5.97316C12.8334 7.54816 12.0226 8.94235 10.7742 9.81735Z" stroke="#333333" stroke-width="1.1" stroke-linecap="round" stroke-linejoin="round"/>
<path d="M7.58317 8.88405C7.58317 9.57822 7.32651 10.2199 6.89484 10.7274C6.31734 11.4274 5.4015 11.8766 4.37484 11.8766L2.85234 12.7807C2.59567 12.9382 2.269 12.7224 2.304 12.4249L2.44984 11.2757C1.66817 10.7332 1.1665 9.86405 1.1665 8.88405C1.1665 7.85738 1.71484 6.95323 2.55484 6.41656C3.07401 6.07823 3.69817 5.88574 4.37484 5.88574C6.14817 5.88574 7.58317 7.22738 7.58317 8.88405Z" stroke="#333333" stroke-width="1.1" stroke-linecap="round" stroke-linejoin="round"/>
</svg>
