<svg width="21" height="20" viewBox="0 0 21 20" fill="none" xmlns="http://www.w3.org/2000/svg">
<path d="M16.3308 14.0248L16.6558 16.6582C16.7391 17.3498 15.9975 17.8332 15.4058 17.4748L12.5225 15.7582C12.3225 15.6415 12.2725 15.3915 12.3808 15.1915C12.7975 14.4248 13.0225 13.5582 13.0225 12.6915C13.0225 9.6415 10.4058 7.15817 7.18912 7.15817C6.53079 7.15817 5.88912 7.25817 5.28912 7.45817C4.98079 7.55817 4.68079 7.27484 4.75579 6.95817C5.51412 3.92484 8.43079 1.6665 11.9141 1.6665C15.9808 1.6665 19.2725 4.7415 19.2725 8.53317C19.2725 10.7832 18.1141 12.7748 16.3308 14.0248Z" fill="#003343"/>
<path d="M11.7721 12.6915C11.7721 13.6832 11.4055 14.5999 10.7888 15.3249C9.9638 16.3249 8.65547 16.9665 7.1888 16.9665L5.0138 18.2582C4.64714 18.4832 4.18047 18.1749 4.23047 17.7499L4.4388 16.1082C3.32214 15.3332 2.60547 14.0915 2.60547 12.6915C2.60547 11.2249 3.3888 9.9332 4.5888 9.16654C5.33047 8.6832 6.22214 8.4082 7.1888 8.4082C9.72214 8.4082 11.7721 10.3249 11.7721 12.6915Z" fill="#003343"/>
</svg>
