<svg width="223" height="415" viewBox="0 0 223 415" fill="none" xmlns="http://www.w3.org/2000/svg">
<rect width="219" height="399" fill="#003343"/>
<path d="M219 351.75V414H9V351.75C9 340.337 13.725 331 19.5 331H208.5C214.275 331 219 340.337 219 351.75Z" fill="#194756" stroke="#194756" stroke-width="1.5" stroke-miterlimit="10" stroke-linecap="round" stroke-linejoin="round"/>
<path d="M112.831 185.165H71.1641V330.998H112.831V185.165Z" fill="#194756"/>
<path d="M196.167 185.165H154.5V330.998H196.167V185.165Z" fill="#194756"/>
<path d="M216.997 67.5001L221.703 3.00068C217.536 1.33401 213.456 -0.871641 209.289 0.795026L21.7891 75.795C14.4974 78.7117 8.66406 87.2534 8.66406 95.17V164.337C8.66406 175.795 18.0391 185.17 29.4974 185.17H216.997C228.456 185.17 216.997 172.458 216.997 161V105.706C216.997 97.7891 224.289 70.4168 216.997 67.5001Z" fill="#194756"/>
</svg>
