<svg width="411" height="192" viewBox="0 0 411 192" fill="none" xmlns="http://www.w3.org/2000/svg">
<g filter="url(#filter0_d_730_5061)">
<g clip-path="url(#clip0_730_5061)">
<rect x="19" y="13" width="373" height="154" rx="12" fill="#003343"/>
<path d="M354.15 57.3001C369.6 55.8001 380.25 45.1501 380.25 28.8001V5.1001H352.95V31.0501H366C366 37.3501 362.25 42.7501 354.15 43.5001V57.3001ZM317.4 57.3001C333 55.8001 343.5 45.1501 343.5 28.8001V5.1001H316.35V31.0501H329.4C329.4 37.3501 325.5 42.7501 317.4 43.5001V57.3001Z" fill="white" fill-opacity="0.1"/>
<g opacity="0.7">
<path d="M137.854 134.188C137.339 134.188 136.836 134.339 136.407 134.622C135.978 134.906 135.641 135.309 135.439 135.782C135.237 136.255 135.179 136.777 135.271 137.283C135.363 137.789 135.602 138.257 135.958 138.629V138.753C135.676 138.685 135.383 138.675 135.097 138.724C134.707 138.163 134.499 137.496 134.5 136.813C134.5 134.96 136.001 133.458 137.854 133.458C139.706 133.458 141.208 134.96 141.208 136.813C141.208 137.24 141.127 137.663 140.968 138.06C140.939 138.053 140.91 138.046 140.88 138.039L140.242 137.902C140.425 137.502 140.504 137.063 140.473 136.625C140.441 136.186 140.3 135.763 140.062 135.393C139.824 135.023 139.498 134.719 139.112 134.508C138.726 134.298 138.293 134.188 137.854 134.188ZM137.854 135.5C137.506 135.5 137.172 135.638 136.926 135.885C136.68 136.131 136.541 136.465 136.541 136.813V139.574L135.996 139.373C135.081 139.037 134.085 139.615 133.924 140.577C133.903 140.7 133.924 140.827 133.983 140.937C134.042 141.046 134.136 141.134 134.25 141.185C136.377 142.144 137.281 143.045 137.597 143.72C137.739 144.025 138.07 144.292 138.481 144.244L140.302 144.031C140.547 144.002 140.778 143.901 140.965 143.74C141.153 143.579 141.288 143.366 141.353 143.128L142.023 140.694C142.083 140.474 142.098 140.244 142.066 140.018C142.035 139.791 141.957 139.574 141.839 139.379C141.721 139.184 141.564 139.015 141.378 138.883C141.192 138.75 140.98 138.658 140.757 138.61L139.166 138.268V136.813C139.166 136.465 139.028 136.131 138.782 135.885C138.536 135.638 138.202 135.5 137.854 135.5Z" fill="white"/>
</g>
<path d="M152.808 142H153.816V137.344H155.56V136.424H151.064V137.344H152.808V142ZM159.246 142H160.334L158.11 136.424H157.358L155.126 142H156.214L156.638 140.848H158.822L159.246 142ZM156.982 139.928L157.734 137.896L158.486 139.928H156.982ZM161.071 142H162.063V139.688H162.895C164.127 139.688 164.791 139.112 164.791 138.032C164.791 136.968 164.143 136.424 162.895 136.424H161.071V142ZM162.063 138.768V137.344H162.791C163.503 137.344 163.791 137.544 163.791 138.048C163.791 138.552 163.495 138.768 162.791 138.768H162.063ZM168.722 142H169.73V137.344H171.474V136.424H166.978V137.344H168.722V142ZM174.367 142.12C175.951 142.12 177.031 140.96 177.031 139.216C177.031 137.464 175.959 136.304 174.367 136.304C172.783 136.304 171.703 137.464 171.703 139.216C171.703 140.96 172.783 142.12 174.367 142.12ZM174.367 141.168C173.351 141.168 172.703 140.424 172.703 139.216C172.703 138 173.351 137.256 174.367 137.256C175.383 137.256 176.031 138.008 176.031 139.216C176.031 140.416 175.383 141.168 174.367 141.168ZM181.289 142.12C182.449 142.12 183.169 141.352 183.169 140.064V136.424H180.065V137.344H182.169V140.008C182.169 140.824 181.889 141.192 181.289 141.192C180.721 141.192 180.433 140.872 180.385 140.152L179.401 140.264C179.481 141.432 180.201 142.12 181.289 142.12ZM186.742 142.12C188.326 142.12 189.406 140.96 189.406 139.216C189.406 137.464 188.334 136.304 186.742 136.304C185.158 136.304 184.078 137.464 184.078 139.216C184.078 140.96 185.158 142.12 186.742 142.12ZM186.742 141.168C185.726 141.168 185.078 140.424 185.078 139.216C185.078 138 185.726 137.256 186.742 137.256C187.758 137.256 188.406 138.008 188.406 139.216C188.406 140.416 187.758 141.168 186.742 141.168ZM190.423 142H191.423V136.424H190.423V142ZM196.205 136.424V140.264L193.861 136.424H192.829V142H193.829V138.144L196.165 142H197.205V136.424H196.205ZM201.66 142H202.668V137.344H204.412V136.424H199.916V137.344H201.66V142ZM205.181 142H206.181V139.592H208.621V142H209.621V136.424H208.621V138.672H206.181V136.424H205.181V142ZM211.032 142H214.744V141.08H212.032V139.592H214.552V138.672H212.032V137.344H214.744V136.424H211.032V142ZM220.18 142.12C221.372 142.12 222.268 141.536 222.668 140.456L221.732 140.104C221.492 140.808 220.948 141.168 220.18 141.168C219.108 141.168 218.476 140.456 218.476 139.2C218.476 137.952 219.1 137.248 220.18 137.248C220.94 137.248 221.484 137.592 221.732 138.288L222.652 137.928C222.244 136.864 221.356 136.296 220.18 136.296C218.532 136.296 217.476 137.424 217.476 139.208C217.476 140.992 218.532 142.12 220.18 142.12ZM225.765 142.12C227.349 142.12 228.429 140.96 228.429 139.216C228.429 137.464 227.357 136.304 225.765 136.304C224.181 136.304 223.101 137.464 223.101 139.216C223.101 140.96 224.181 142.12 225.765 142.12ZM225.765 141.168C224.749 141.168 224.101 140.424 224.101 139.216C224.101 138 224.749 137.256 225.765 137.256C226.781 137.256 227.429 138.008 227.429 139.216C227.429 140.416 226.781 141.168 225.765 141.168ZM232.822 136.424V140.264L230.478 136.424H229.446V142H230.446V138.144L232.782 142H233.822V136.424H232.822ZM238.659 136.424L237.163 140.368L235.659 136.424H234.555L236.787 142H237.539L239.763 136.424H238.659ZM240.501 142H244.213V141.08H241.501V139.592H244.021V138.672H241.501V137.344H244.213V136.424H240.501V142ZM249.576 142L248.072 139.568C248.736 139.344 249.104 138.832 249.104 138.032C249.104 137.032 248.536 136.424 247.208 136.424H245.384V142H246.376V139.688H246.744H247.08L248.416 142H249.576ZM246.376 138.768V137.344H247.104C247.752 137.344 248.104 137.504 248.104 138.048C248.104 138.592 247.752 138.768 247.104 138.768H246.376ZM251.96 142.104C253.104 142.104 253.896 141.416 253.896 140.376C253.896 139.584 253.504 139.16 252.312 138.704C251.472 138.376 251.2 138.168 251.2 137.8C251.2 137.456 251.504 137.192 251.904 137.192C252.28 137.192 252.608 137.416 252.8 137.832L253.632 137.32C253.28 136.648 252.688 136.304 251.936 136.304C250.896 136.304 250.2 136.92 250.2 137.824C250.2 138.632 250.616 139.056 251.784 139.512C252.608 139.84 252.896 140.08 252.896 140.464C252.896 140.936 252.536 141.216 251.976 141.216C251.328 141.216 250.888 140.84 250.816 140.176L249.824 140.424C249.984 141.44 250.848 142.104 251.96 142.104ZM258.16 142H259.248L257.024 136.424H256.272L254.04 142H255.128L255.552 140.848H257.736L258.16 142ZM255.896 139.928L256.648 137.896L257.4 139.928H255.896ZM260.558 142H261.566V137.344H263.31V136.424H258.814V137.344H260.558V142ZM264.079 142H265.079V136.424H264.079V142ZM268.757 142.12C270.341 142.12 271.421 140.96 271.421 139.216C271.421 137.464 270.349 136.304 268.757 136.304C267.173 136.304 266.093 137.464 266.093 139.216C266.093 140.96 267.173 142.12 268.757 142.12ZM268.757 141.168C267.741 141.168 267.093 140.424 267.093 139.216C267.093 138 267.741 137.256 268.757 137.256C269.773 137.256 270.421 138.008 270.421 139.216C270.421 140.416 269.773 141.168 268.757 141.168ZM275.814 136.424V140.264L273.47 136.424H272.438V142H273.438V138.144L275.774 142H276.814V136.424H275.814Z" fill="white" fill-opacity="0.7"/>
</g>
</g>
<defs>
<filter id="filter0_d_730_5061" x="0" y="0" width="411" height="192" filterUnits="userSpaceOnUse" color-interpolation-filters="sRGB">
<feFlood flood-opacity="0" result="BackgroundImageFix"/>
<feColorMatrix in="SourceAlpha" type="matrix" values="0 0 0 0 0 0 0 0 0 0 0 0 0 0 0 0 0 0 127 0" result="hardAlpha"/>
<feOffset dy="6"/>
<feGaussianBlur stdDeviation="9.5"/>
<feComposite in2="hardAlpha" operator="out"/>
<feColorMatrix type="matrix" values="0 0 0 0 0 0 0 0 0 0.199686 0 0 0 0 0.262745 0 0 0 0.05 0"/>
<feBlend mode="normal" in2="BackgroundImageFix" result="effect1_dropShadow_730_5061"/>
<feBlend mode="normal" in="SourceGraphic" in2="effect1_dropShadow_730_5061" result="shape"/>
</filter>
<clipPath id="clip0_730_5061">
<rect x="19" y="13" width="373" height="154" rx="12" fill="white"/>
</clipPath>
</defs>
</svg>
