<svg width="310" height="370" viewBox="0 0 310 370" fill="none" xmlns="http://www.w3.org/2000/svg">
<path fill-rule="evenodd" clip-rule="evenodd" d="M0 12C0 5.37258 5.37258 0 12 0H298C304.627 0 310 5.37258 310 12V358C310 364.627 304.627 370 298 370H12C5.37259 370 0 364.627 0 358V12Z" fill="#FFBF67"/>
<mask id="mask0_732_5185" style="mask-type:alpha" maskUnits="userSpaceOnUse" x="0" y="0" width="310" height="370">
<path fill-rule="evenodd" clip-rule="evenodd" d="M0 12C0 5.37258 5.37258 0 12 0H298C304.627 0 310 5.37258 310 12V358C310 364.627 304.627 370 298 370H12C5.37259 370 0 364.627 0 358V12Z" fill="white"/>
</mask>
<g mask="url(#mask0_732_5185)">
<g opacity="0.308105">
<path fill-rule="evenodd" clip-rule="evenodd" d="M95.8658 -107C80.7666 -80.8281 70.8829 -51.309 67.044 -20.9225C64.6691 -2.12341 65.5023 19.437 78.5912 32.4061C88.4002 42.1277 102.86 44.5461 116.295 44.0236C129.731 43.501 143.091 40.5154 156.512 41.3496C169.933 42.1848 184.145 47.7863 190.954 60.0438C197.398 71.6426 195.793 86.092 195.003 99.5182C194.215 112.945 195.164 128.187 204.748 137.034C218.321 149.563 240.437 141.821 256.437 150.581C271.613 158.889 277.775 180.085 293.412 187.373C306.482 193.467 321.526 187.804 334.745 182.083C348.525 176.118 362.277 170.08 376 163.969" fill="#FFBF67"/>
<path d="M95.8658 -107C80.7666 -80.8281 70.8829 -51.309 67.044 -20.9225C64.6691 -2.12341 65.5023 19.437 78.5912 32.4061C88.4002 42.1277 102.86 44.5461 116.295 44.0236C129.731 43.501 143.091 40.5154 156.512 41.3496C169.933 42.1848 184.145 47.7863 190.954 60.0438C197.398 71.6426 195.793 86.092 195.003 99.5182C194.215 112.945 195.164 128.187 204.748 137.034C218.321 149.563 240.437 141.821 256.437 150.581C271.613 158.889 277.775 180.085 293.412 187.373C306.482 193.467 321.526 187.804 334.745 182.083C348.525 176.118 362.277 170.08 376 163.969" stroke="white" stroke-width="2.3"/>
<path fill-rule="evenodd" clip-rule="evenodd" d="M112.191 -124C97.4345 -98.4445 87.773 -69.6224 84.0202 -39.9517C81.6994 -21.5955 82.5136 -0.543223 95.3071 12.1209C104.894 21.6128 119.027 23.9749 132.16 23.4635C145.291 22.9541 158.35 20.0381 171.468 20.8535C184.587 21.6688 198.478 27.1389 205.133 39.1059C211.431 50.4329 209.863 64.541 209.091 77.6513C208.32 90.7615 209.246 105.644 218.615 114.283C231.882 126.516 253.498 118.957 269.137 127.51C283.97 135.622 289.993 156.318 305.278 163.436C318.051 169.384 332.756 163.856 345.678 158.27C359.146 152.445 372.588 146.55 386 140.583" fill="#FFBF67"/>
<path d="M112.191 -124C97.4345 -98.4445 87.773 -69.6224 84.0202 -39.9517C81.6994 -21.5955 82.5136 -0.543223 95.3071 12.1209C104.894 21.6128 119.027 23.9749 132.16 23.4635C145.291 22.9541 158.35 20.0381 171.468 20.8535C184.587 21.6688 198.478 27.1389 205.133 39.1059C211.431 50.4329 209.863 64.541 209.091 77.6513C208.32 90.7615 209.246 105.644 218.615 114.283C231.882 126.516 253.498 118.957 269.137 127.51C283.97 135.622 289.993 156.318 305.278 163.436C318.051 169.384 332.756 163.856 345.678 158.27C359.146 152.445 372.588 146.55 386 140.583" stroke="white" stroke-width="2.3"/>
<path fill-rule="evenodd" clip-rule="evenodd" d="M126.613 -141C112.147 -115.973 102.678 -87.7473 99.0008 -58.6901C96.7244 -40.7136 97.5233 -20.0969 110.063 -7.69508C119.461 1.5998 133.315 3.91259 146.186 3.41261C159.058 2.91263 171.858 0.0582749 184.717 0.856583C197.575 1.65489 211.19 7.01124 217.714 18.7312C223.889 29.8233 222.35 43.6398 221.594 56.4793C220.838 69.3177 221.746 83.892 230.93 92.3522C243.934 104.333 265.121 96.93 280.451 105.307C294.99 113.252 300.895 133.518 315.875 140.489C328.397 146.315 342.81 140.9 355.475 135.43C368.677 129.725 381.853 123.952 395 118.108" fill="#FFBF67"/>
<path d="M126.613 -141C112.147 -115.973 102.678 -87.7473 99.0008 -58.6901C96.7244 -40.7136 97.5233 -20.0969 110.063 -7.69508C119.461 1.5998 133.315 3.91259 146.186 3.41261C159.058 2.91263 171.858 0.0582749 184.717 0.856583C197.575 1.65489 211.19 7.01124 217.714 18.7312C223.889 29.8233 222.35 43.6398 221.594 56.4793C220.838 69.3177 221.746 83.892 230.93 92.3522C243.934 104.333 265.121 96.93 280.451 105.307C294.99 113.252 300.895 133.518 315.875 140.489C328.397 146.315 342.81 140.9 355.475 135.43C368.677 129.725 381.853 123.952 395 118.108" stroke="white" stroke-width="2.3"/>
<path fill-rule="evenodd" clip-rule="evenodd" d="M141.94 -159C127.814 -134.59 118.569 -107.06 114.977 -78.7193C112.755 -61.1858 113.534 -41.0772 125.779 -28.9813C134.956 -19.9151 148.482 -17.6587 161.05 -18.1465C173.619 -18.6343 186.117 -21.419 198.673 -20.6396C211.228 -19.8611 224.523 -14.6373 230.893 -3.2057C236.922 7.61353 235.42 21.0888 234.682 33.6113C233.943 46.1347 234.83 60.349 243.796 68.6004C256.494 80.2853 277.183 73.0655 292.151 81.235C306.348 88.9841 312.111 108.751 326.74 115.551C338.966 121.233 353.041 115.952 365.406 110.616C378.298 105.053 391.162 99.4213 404 93.7211" fill="#FFBF67"/>
<path d="M141.94 -159C127.814 -134.59 118.569 -107.06 114.977 -78.7193C112.755 -61.1858 113.534 -41.0772 125.779 -28.9813C134.956 -19.9151 148.482 -17.6587 161.05 -18.1465C173.619 -18.6343 186.117 -21.419 198.673 -20.6396C211.228 -19.8611 224.523 -14.6373 230.893 -3.2057C236.922 7.61353 235.42 21.0888 234.682 33.6113C233.943 46.1347 234.83 60.349 243.796 68.6004C256.494 80.2853 277.183 73.0655 292.151 81.235C306.348 88.9841 312.111 108.751 326.74 115.551C338.966 121.233 353.041 115.952 365.406 110.616C378.298 105.053 391.162 99.4213 404 93.7211" stroke="white" stroke-width="2.3"/>
<path fill-rule="evenodd" clip-rule="evenodd" d="M157.265 -177C143.481 -153.119 134.458 -126.185 130.953 -98.4576C128.785 -81.3048 129.546 -61.6317 141.495 -49.7971C150.449 -40.9279 163.649 -38.7207 175.914 -39.1982C188.18 -39.6745 200.377 -42.3987 212.629 -41.6373C224.881 -40.8749 237.856 -35.7636 244.071 -24.5802C249.954 -13.9958 248.49 -0.812119 247.768 11.4396C247.048 23.6913 247.914 37.5979 256.663 45.6714C269.055 57.1024 289.244 50.0389 303.851 58.0312C317.705 65.6128 323.33 84.9519 337.606 91.6036C349.537 97.1631 363.271 91.9968 375.339 86.7763C387.919 81.3333 400.473 75.8237 413 70.2476" fill="#FFBF67"/>
<path d="M157.265 -177C143.481 -153.119 134.458 -126.185 130.953 -98.4576C128.785 -81.3048 129.546 -61.6317 141.495 -49.7971C150.449 -40.9279 163.649 -38.7207 175.914 -39.1982C188.18 -39.6745 200.377 -42.3987 212.629 -41.6373C224.881 -40.8749 237.856 -35.7636 244.071 -24.5802C249.954 -13.9958 248.49 -0.812119 247.768 11.4396C247.048 23.6913 247.914 37.5979 256.663 45.6714C269.055 57.1024 289.244 50.0389 303.851 58.0312C317.705 65.6128 323.33 84.9519 337.606 91.6036C349.537 97.1631 363.271 91.9968 375.339 86.7763C387.919 81.3333 400.473 75.8237 413 70.2476" stroke="white" stroke-width="2.3"/>
<path fill-rule="evenodd" clip-rule="evenodd" d="M172.591 -194C159.148 -170.736 150.348 -144.497 146.929 -117.487C144.815 -100.776 145.557 -81.612 157.21 -70.0833C165.944 -61.4428 178.817 -59.2931 190.778 -59.7573C202.742 -60.2215 214.636 -62.876 226.585 -62.1334C238.534 -61.3909 251.188 -56.4122 257.25 -45.5171C262.987 -35.2066 261.558 -22.3621 260.855 -10.4274C260.153 1.5073 260.996 15.0548 269.53 22.9196C281.615 34.0557 301.304 27.1744 315.55 34.9613C329.061 42.3462 334.547 61.185 348.471 67.6654C360.106 73.0813 373.5 68.0486 385.27 62.963C397.539 57.6603 409.782 52.2932 422 46.8607" fill="#FFBF67"/>
<path d="M172.591 -194C159.148 -170.736 150.348 -144.497 146.929 -117.487C144.815 -100.776 145.557 -81.612 157.21 -70.0833C165.944 -61.4428 178.817 -59.2931 190.778 -59.7573C202.742 -60.2215 214.636 -62.876 226.585 -62.1334C238.534 -61.3909 251.188 -56.4122 257.25 -45.5171C262.987 -35.2066 261.558 -22.3621 260.855 -10.4274C260.153 1.5073 260.996 15.0548 269.53 22.9196C281.615 34.0557 301.304 27.1744 315.55 34.9613C329.061 42.3462 334.547 61.185 348.471 67.6654C360.106 73.0813 373.5 68.0486 385.27 62.963C397.539 57.6603 409.782 52.2932 422 46.8607" stroke="white" stroke-width="2.3"/>
<path fill-rule="evenodd" clip-rule="evenodd" d="M188.917 -211C175.815 -188.352 167.237 -162.81 163.906 -136.516C161.845 -120.248 162.568 -101.592 173.926 -90.3685C182.438 -81.9577 194.985 -79.8644 206.643 -80.3164C218.302 -80.7695 229.895 -83.3523 241.541 -82.6296C253.187 -81.9069 265.52 -77.0597 271.428 -66.4539C277.02 -56.4164 275.627 -43.9142 274.943 -32.2955C274.257 -20.6767 275.079 -7.48817 283.397 0.167816C295.175 11.009 314.365 4.30997 328.25 11.8903C341.419 19.0797 346.765 37.4192 360.334 43.7273C371.676 48.9996 384.73 44.1005 396.201 39.1497C408.158 33.9883 420.091 28.7627 432 23.4748" fill="#FFBF67"/>
<path d="M188.917 -211C175.815 -188.352 167.237 -162.81 163.906 -136.516C161.845 -120.248 162.568 -101.592 173.926 -90.3685C182.438 -81.9577 194.985 -79.8644 206.643 -80.3164C218.302 -80.7695 229.895 -83.3523 241.541 -82.6296C253.187 -81.9069 265.52 -77.0597 271.428 -66.4539C277.02 -56.4164 275.627 -43.9142 274.943 -32.2955C274.257 -20.6767 275.079 -7.48817 283.397 0.167816C295.175 11.009 314.365 4.30997 328.25 11.8903C341.419 19.0797 346.765 37.4192 360.334 43.7273C371.676 48.9996 384.73 44.1005 396.201 39.1497C408.158 33.9883 420.091 28.7627 432 23.4748" stroke="white" stroke-width="2.3"/>
<path fill-rule="evenodd" clip-rule="evenodd" d="M204.242 -229C191.481 -206.882 183.127 -181.935 179.882 -156.254C177.875 -140.367 178.58 -122.146 189.641 -111.185C197.932 -102.971 210.152 -100.925 221.507 -101.368C232.862 -101.809 244.153 -104.333 255.497 -103.626C266.841 -102.921 278.851 -98.1871 284.606 -87.8284C290.053 -78.0257 288.696 -65.8151 288.029 -54.4671C287.363 -43.1201 288.164 -30.2393 296.264 -22.7623C307.736 -12.1739 326.427 -18.7167 339.949 -11.3135C352.776 -4.29267 357.983 13.62 371.199 19.7803C382.245 24.9295 394.961 20.1451 406.134 15.3097C417.78 10.2685 429.401 5.16505 441 0.000244141" fill="#FFBF67"/>
<path d="M204.242 -229C191.481 -206.882 183.127 -181.935 179.882 -156.254C177.875 -140.367 178.58 -122.146 189.641 -111.185C197.932 -102.971 210.152 -100.925 221.507 -101.368C232.862 -101.809 244.153 -104.333 255.497 -103.626C266.841 -102.921 278.851 -98.1871 284.606 -87.8284C290.053 -78.0257 288.696 -65.8151 288.029 -54.4671C287.363 -43.1201 288.164 -30.2393 296.264 -22.7623C307.736 -12.1739 326.427 -18.7167 339.949 -11.3135C352.776 -4.29267 357.983 13.62 371.199 19.7803C382.245 24.9295 394.961 20.1451 406.134 15.3097C417.78 10.2685 429.401 5.16505 441 0.000244141" stroke="white" stroke-width="2.3"/>
<path fill-rule="evenodd" clip-rule="evenodd" d="M219.568 -246C207.147 -224.498 199.017 -200.247 195.859 -175.283C193.905 -159.839 194.591 -142.126 205.357 -131.471C213.426 -123.484 225.32 -121.498 236.372 -121.927C247.424 -122.357 258.413 -124.809 269.453 -124.123C280.494 -123.437 292.184 -118.836 297.785 -108.765C303.086 -99.2365 301.766 -87.3651 301.117 -76.3351C300.467 -65.3041 301.247 -52.7823 309.131 -45.514C320.296 -35.2206 338.488 -41.5811 351.649 -34.3845C364.132 -27.5582 369.202 -10.1469 382.064 -4.15781C392.815 0.847807 405.19 -3.80301 416.065 -8.50465C427.4 -13.4044 438.712 -18.3655 450 -23.3856" fill="#FFBF67"/>
<path d="M219.568 -246C207.147 -224.498 199.017 -200.247 195.859 -175.283C193.905 -159.839 194.591 -142.126 205.357 -131.471C213.426 -123.484 225.32 -121.498 236.372 -121.927C247.424 -122.357 258.413 -124.809 269.453 -124.123C280.494 -123.437 292.184 -118.836 297.785 -108.765C303.086 -99.2365 301.766 -87.3651 301.117 -76.3351C300.467 -65.3041 301.247 -52.7823 309.131 -45.514C320.296 -35.2206 338.488 -41.5811 351.649 -34.3845C364.132 -27.5582 369.202 -10.1469 382.064 -4.15781C392.815 0.847807 405.19 -3.80301 416.065 -8.50465C427.4 -13.4044 438.712 -18.3655 450 -23.3856" stroke="white" stroke-width="2.3"/>
</g>
</g>
</svg>
