<svg width="70" height="60" viewBox="0 0 70 60" fill="none" xmlns="http://www.w3.org/2000/svg">
<circle cx="50.25" cy="37.5" r="15.75" fill="#FCF0E3"/>
<path fill-rule="evenodd" clip-rule="evenodd" d="M38.1769 20.23C32.2027 22.7492 28.1741 28.8265 28.5752 35.6682C28.587 35.8687 28.6024 36.0682 28.6215 36.2665C27.0132 36.9447 25.2638 37.365 23.422 37.473C14.7384 37.9821 7.28629 31.3553 6.77722 22.6717C6.26815 13.9882 12.8949 6.53605 21.5785 6.02698C30.0615 5.52967 37.3693 11.8424 38.1769 20.23Z" fill="#006969"/>
<path fill-rule="evenodd" clip-rule="evenodd" d="M3.81922 9.9694C6.22753 6.36067 9.64309 3.50392 13.5715 1.70674C15.0231 1.06571 16.5357 0.605783 18.0823 0.344197C23.5301 -0.622808 29.2586 0.472978 33.9384 3.31363C36.0322 4.54624 37.9041 6.17497 39.4466 8.03079C41.4347 10.4017 42.9283 13.2964 43.3997 16.3745C43.5728 17.3312 43.156 17.2484 42.6058 16.5602C42.3304 16.217 42.0228 15.7254 41.7394 15.1275C41.3726 14.5549 41.0472 13.8679 40.7367 13.1079C39.5455 10.4454 37.7064 8.09346 35.4389 6.23074C33.1714 4.36457 30.4866 2.97673 27.6057 2.1408C27.1831 1.9827 26.7324 1.92923 26.2909 1.82632C25.8453 1.74756 25.4032 1.61706 24.9467 1.58429C24.0366 1.50035 23.1202 1.37732 22.1952 1.42504C20.3428 1.38652 18.5054 1.73721 16.7163 2.14943C15.7406 2.41159 14.7868 2.74619 13.875 3.1653C13.4174 3.36939 12.9776 3.61201 12.5355 3.86842L11.8726 4.24499L11.2339 4.6618C9.53673 5.77943 7.97814 7.11956 6.65642 8.67125C5.84061 9.62446 5.1168 10.653 4.4614 11.7252C3.83474 12.8141 3.2834 13.9467 2.83841 15.1235C1.50576 18.6897 1.12287 22.6474 1.83691 26.3711C2.41988 29.2578 3.63754 31.9415 5.36573 34.2474C5.54453 34.5107 5.74748 34.7505 5.951 34.9902C6.15624 35.2288 6.34596 35.4806 6.56156 35.7163C8.14372 37.4802 8.71633 37.9717 8.83994 38.6317C8.87098 38.7789 8.9325 38.9525 8.9279 39.0692C8.91985 39.2664 8.68644 39.2526 8.26905 39.0439C8.06036 38.9393 7.80624 38.787 7.51189 38.588C7.22788 38.3788 6.91513 38.1109 6.5673 37.8039C4.54706 35.944 2.84416 33.58 1.70468 30.9124C1.14012 29.578 0.700309 28.1769 0.408253 26.7385C0.132294 25.2972 -0.00338534 23.8243 6.41411e-05 22.3507C0.0219109 20.1626 0.351336 17.9722 0.99409 15.8772C1.64604 13.7845 2.58948 11.785 3.78472 9.95331L3.81922 9.9694Z" fill="#2277F1"/>
<path fill-rule="evenodd" clip-rule="evenodd" d="M19.1146 44.8204C17.8613 45.9633 16.3993 46.7555 14.9097 47.3546C14.3635 47.5673 13.8283 47.8088 13.2666 47.964C12.8342 48.098 12.3939 48.1957 11.9563 48.3021L11.2958 48.4366L10.9652 48.4981L10.5484 48.5711C9.84641 48.6878 9.16112 48.7769 8.54596 48.8195C7.97564 48.8488 7.12535 48.9885 7.12305 48.7735C7.4381 48.4067 7.79857 47.9933 8.08315 47.638L8.48962 47.1327L8.75638 46.6751C8.84261 46.5256 8.93805 46.3658 8.98749 46.2249L9.10362 45.9392C9.2416 45.5494 9.36004 45.1504 9.4411 44.7422C9.66302 43.6924 9.67451 42.607 9.85619 41.5359C9.91023 41.2036 10.2983 41.2369 10.672 41.5428C11.0445 41.8464 11.3912 42.442 11.3251 43.1278C11.2394 44.046 11.0601 44.9664 10.764 45.8736C10.6835 46.1001 10.6041 46.3261 10.5087 46.5491L10.3771 46.8418C10.3742 46.8355 10.3656 46.8458 10.3587 46.8493C10.3288 46.8705 10.2822 46.9108 10.2034 46.9803L10.1172 47.0539C10.1063 47.0706 10.1183 47.0769 10.1229 47.0884C10.1373 47.1097 10.1649 47.1298 10.2098 47.1488C10.2661 47.1706 10.3644 47.1741 10.4673 47.1637L10.5547 47.1494L10.6806 47.1269C10.7646 47.1126 10.8479 47.0942 10.9313 47.0746L11.4315 46.9585C12.0961 46.7912 12.752 46.5819 13.3959 46.3646C14.8068 45.8805 16.1722 45.2481 17.3502 44.3674C17.5411 44.2426 17.7055 44.0902 17.8739 43.9408C18.0378 43.7884 18.2218 43.651 18.3718 43.4854L18.9548 42.8283L19.1295 42.6282C19.1451 42.615 19.1571 42.5891 19.175 42.5851L19.2371 42.5978L19.3612 42.6219L19.8534 42.7179L20.4628 42.8289C20.637 42.8582 20.8117 42.8921 20.9871 42.9151C21.3378 42.9697 21.6896 43.0134 22.0421 43.0502C22.7469 43.1198 23.4552 43.1537 24.1572 43.137C25.2501 43.1025 26.3096 42.9134 27.3491 42.6656C27.5768 42.6058 27.8004 42.5472 28.0292 42.4874C28.8812 42.2821 29.1681 42.2936 29.4625 42.6328C29.5292 42.7093 29.6102 42.7817 29.6608 42.8634C29.8304 43.1336 29.5418 43.4929 28.891 43.7401C26.9645 44.4783 24.7493 44.7066 22.5773 44.5818C21.769 44.5387 20.9635 44.4404 20.1673 44.3041L19.8913 44.257L19.8327 44.242C19.797 44.2328 19.7355 44.2144 19.7453 44.2225C19.7453 44.2225 19.7378 44.2265 19.7332 44.2317L19.7292 44.2345L19.7016 44.2656L19.5947 44.3875C19.4572 44.5565 19.3032 44.7054 19.1422 44.8457L19.1146 44.8204Z" fill="#2277F1"/>
<path fill-rule="evenodd" clip-rule="evenodd" d="M45.3601 20.2025C43.9556 20.6033 42.6131 21.192 41.323 21.875C40.0565 22.6022 38.8595 23.4491 37.7758 24.4287C36.7243 25.4366 35.7372 26.5249 34.9536 27.7575C34.1792 28.9838 33.5025 30.3015 33.0253 31.6933C32.3084 33.7165 32.0106 35.8643 32.0152 37.9956C32.0715 41.7549 33.3277 45.5229 35.6774 48.5015C37.9828 51.5147 41.3437 53.6821 45.0364 54.6416C46.6755 55.0699 48.3824 55.2591 50.0836 55.2326C50.509 55.228 50.9344 55.2228 51.3582 55.1751C51.7813 55.1291 52.2079 55.1228 52.6264 55.0435L53.2565 54.9463L53.7418 54.8721L53.9884 54.8348L54.112 54.8158C54.1448 54.8325 54.1695 54.8733 54.1982 54.9009L54.7927 55.5517C54.9151 55.7075 55.0911 55.8127 55.2365 55.9467C56.3133 56.8562 57.7184 57.3518 59.1385 57.6553C59.8583 57.7898 60.5884 57.8818 61.3249 57.9244L61.6761 57.9382L61.9021 57.9399L62.1297 57.9353L62.2447 57.9301C62.262 57.9284 62.2873 57.9295 62.2988 57.9244L62.2666 57.879C62.1878 57.7686 62.1142 57.6547 62.0452 57.5334L61.9452 57.346L61.8394 57.1339C61.7963 57.0522 61.7595 56.966 61.721 56.8815C61.4117 56.2054 61.1967 55.4712 61.1029 54.725C61.0265 54.0638 61.13 53.7361 61.2473 53.6855C61.3732 53.6321 61.529 53.8511 61.7331 54.2409C61.9389 54.6307 62.2033 55.182 62.5954 55.7966C62.6914 55.9513 62.7966 56.1105 62.9099 56.2726C62.9668 56.3537 63.0255 56.4365 63.0841 56.5204L63.1755 56.6463C63.2135 56.7073 63.2853 56.8165 63.344 56.8964C63.7999 57.5846 64.5438 58.4579 65.2153 59.349C65.0417 59.3835 64.7922 59.4099 64.5576 59.437C64.3202 59.4628 64.0793 59.4893 63.8355 59.5157C63.5843 59.5381 63.333 59.5657 63.0663 59.5824C62.7886 59.5882 62.508 59.5945 62.2246 59.6002L61.8066 59.5991L61.418 59.5824C61.2679 59.5755 61.1173 59.5703 60.9673 59.556C60.6672 59.5307 60.3671 59.5088 60.067 59.4651C59.4667 59.3944 58.8671 59.2823 58.2721 59.1311C57.0849 58.8316 55.9 58.3676 54.8335 57.634C54.5576 57.469 54.3155 57.2448 54.066 57.0344C53.9453 56.924 53.8096 56.832 53.7044 56.7027L53.5388 56.5193C53.525 56.5032 53.529 56.5066 53.5239 56.4992C53.5239 56.4905 53.5124 56.494 53.5233 56.4911L52.6948 56.6095C52.1073 56.6831 51.5122 56.709 50.9212 56.7584C50.3268 56.759 49.7317 56.7843 49.1367 56.7561C46.76 56.6515 44.3776 56.1755 42.1705 55.2418C39.9674 54.3064 37.9287 52.9692 36.2489 51.2657C35.2422 50.2533 34.324 49.1339 33.5456 47.9122C32.7741 46.6871 32.1307 45.3734 31.6392 44C30.6337 41.2559 30.3405 38.2571 30.6705 35.3751C30.8677 33.7901 31.2678 32.2355 31.8289 30.7482C32.3866 29.2638 33.1087 27.8271 34.032 26.5237C34.4603 25.8488 34.999 25.2583 35.5015 24.6415C36.0626 24.0786 36.5898 23.4784 37.2124 22.9823C38.3979 21.9227 39.7369 21.05 41.1362 20.3147C44.5851 18.4956 48.5526 17.6942 52.4246 18.0305C53.1611 18.0685 53.8855 18.2099 54.6116 18.3364C54.9778 18.3841 55.3274 18.5135 55.6861 18.5991C56.0403 18.7026 56.4042 18.7745 56.7497 18.9038C57.4356 19.174 58.1462 19.3867 58.797 19.7374C59.1275 19.9007 59.4627 20.0554 59.7887 20.2255L60.7339 20.7976L61.2053 21.0845L61.6497 21.4116L62.5374 22.0658L63.3641 22.7931C63.6429 23.0323 63.9148 23.2778 64.1592 23.5526L64.9158 24.35C65.1572 24.6248 65.3751 24.9197 65.6057 25.2031C66.0846 25.7585 66.4525 26.3938 66.8636 26.9957C68.0514 28.9292 68.8971 31.0529 69.3317 33.264C69.7749 35.4746 69.7692 37.7673 69.3748 40.0014C69.1874 40.9834 68.9402 41.9349 68.5872 42.8812C67.9243 44.6341 67.2482 45.6862 66.7245 46.3703C66.1927 47.0533 65.7839 47.3661 65.3861 47.55C65.2021 47.6317 64.9842 47.7547 64.8497 47.7743C64.6203 47.8059 64.6973 47.5012 64.9997 46.9314C65.3004 46.3594 65.8057 45.5011 66.3686 44.365C67.1913 42.6754 67.765 40.8454 68.0163 38.9591C68.2319 37.0694 68.1922 35.1365 67.7915 33.2508C67.4 31.3668 66.6813 29.538 65.6787 27.8679C64.6714 26.2006 63.375 24.7001 61.8722 23.4508C60.7448 22.5413 59.538 21.7071 58.2094 21.1138C57.5684 20.766 56.8664 20.563 56.1909 20.2945C55.8436 20.1882 55.4895 20.1048 55.1394 20.0077L54.6127 19.8656C54.4351 19.826 54.2534 19.8018 54.0741 19.7696C51.2047 19.2189 48.1961 19.4184 45.3773 20.2359L45.3601 20.2025Z" fill="#2277F1"/>
<path fill-rule="evenodd" clip-rule="evenodd" d="M51.4001 29.0809C50.9275 28.6911 50.2917 28.813 49.9185 29.3034C49.8766 32.2849 52.1791 37.0308 53.3531 39.7617C53.9723 39.6708 53.9395 39.273 53.932 38.7659C53.9033 36.8819 51.9066 29.4989 51.4001 29.0809" fill="#2277F1"/>
<path fill-rule="evenodd" clip-rule="evenodd" d="M45.3061 30.795C44.7973 30.4989 44.1827 30.5989 43.8418 31.1123C44.2546 33.934 46.5956 38.6776 47.9432 41.3274C48.5555 41.1969 48.4969 40.8025 48.4566 40.2966C48.3066 38.4183 45.8735 31.1256 45.3061 30.795" fill="#2277F1"/>
<path fill-rule="evenodd" clip-rule="evenodd" d="M25.369 19.9525C26.0957 19.2637 26.593 18.1323 26.6195 16.998C26.6269 16.5846 26.5447 16.1805 26.432 15.8027C26.1015 14.4448 24.5906 13.5261 23.0228 13.6549C22.33 13.6917 21.6459 13.932 21.0572 14.2896C20.2879 14.7524 19.7199 15.4515 19.2847 16.2334C19.1433 16.4742 18.9674 16.3932 18.8794 16.0776C18.7863 15.7688 18.7978 15.1721 19.1778 14.6569C20.4696 12.8212 23.0412 11.9847 25.1914 12.8736C25.8278 13.1363 26.4257 13.5226 26.9184 14.0579C27.406 14.5937 27.7296 15.2589 27.8866 15.9321C28.2177 17.4223 27.951 18.9481 27.2065 20.2537C26.7316 21.0707 26.0037 21.6715 25.2897 22.1515C24.1939 22.8771 23.0234 23.3404 22.0696 24.0286C21.6959 24.2936 21.3636 24.5938 21.1124 24.918C20.856 25.2394 20.699 25.5924 20.5053 26.0184C20.4202 26.2047 20.3506 26.4042 20.2402 26.5945C19.8355 27.3091 19.563 27.4545 19.1076 27.3407C19.003 27.3142 18.8921 27.2976 18.7972 27.2573C18.4758 27.117 18.4327 26.7031 18.6155 26.1903C18.7541 25.8062 18.8725 25.4262 19.0674 25.0014C19.2497 24.5788 19.5486 24.0735 19.9246 23.6687C20.6749 22.8627 21.5102 22.3631 22.3197 21.898C23.5126 21.2328 24.6372 20.7004 25.3363 19.926L25.369 19.9525Z" fill="#E2E2E2"/>
<path fill-rule="evenodd" clip-rule="evenodd" d="M18.53 30.7091C18.5248 30.7453 18.5179 30.7821 18.5099 30.8189C18.3552 31.5024 17.7798 31.6749 17.1686 31.5318C16.3114 31.3305 16.0987 30.3313 16.6656 29.703C17.4618 28.8199 18.6737 29.6604 18.53 30.7091" fill="#E2E2E2"/>
<path fill-rule="evenodd" clip-rule="evenodd" d="M50.4362 43.7518C50.4782 44.3192 50.1556 44.8268 49.2007 44.6958C48.3366 44.5773 48.029 43.6126 48.5235 42.9342C49.3657 41.7787 50.3689 42.8428 50.4362 43.7518" fill="#2277F1"/>
<path fill-rule="evenodd" clip-rule="evenodd" d="M55.6303 42.0663C55.6027 42.6349 55.2204 43.0989 54.289 42.8522C53.4456 42.6292 53.2587 41.634 53.8319 41.0211C54.8093 39.9771 55.6751 41.1562 55.6303 42.0663" fill="#2277F1"/>
<path fill-rule="evenodd" clip-rule="evenodd" d="M41.2121 54.595C42.9121 55.4654 44.7587 56.0542 46.6571 56.3485C47.3544 56.4267 48.0501 56.5221 48.7526 56.5158L49.6805 56.5474C49.9904 56.5503 50.2992 56.5175 50.609 56.5049L51.5381 56.4537C51.8468 56.4209 52.1527 56.3675 52.4603 56.3255L53.5169 56.1703C53.659 56.1007 53.7199 56.2709 53.8148 56.3439L54.0263 56.5658L54.3362 56.8958C54.5575 57.0999 54.8019 57.281 55.0336 57.4765C55.2842 57.6478 55.5464 57.8036 55.8022 57.9686C56.7526 58.4929 57.8213 58.8109 58.893 58.9839C60.2756 59.2007 61.6922 59.1748 63.087 59.1087C63.5135 59.0793 63.4986 59.2811 63.1433 59.5215C62.7892 59.7572 62.0849 60.0061 61.2329 59.9998C59.7306 59.9825 58.2077 59.7876 56.7687 59.2426C56.0437 58.9925 55.3624 58.6085 54.7197 58.1773C54.4098 57.945 54.1085 57.695 53.8239 57.4316L53.429 57.001C53.3813 56.9493 53.4123 56.978 53.3991 56.9625L53.3813 56.9372C53.368 56.924 53.3393 56.9343 53.3307 56.9297C51.6174 57.204 49.715 57.3558 47.8966 57.2431C45.8873 57.0867 43.9073 56.5974 42.0566 55.8179C41.7732 55.6954 41.4851 55.581 41.2046 55.4505L40.3888 55.009C39.8334 54.7353 39.3263 54.38 38.8141 54.0356C37.2802 52.9663 35.9131 51.6549 34.7661 50.1981C33.913 49.0408 33.0989 47.872 32.5004 46.5704C32.3653 46.2852 32.2325 46.0058 32.0962 45.7195C31.684 44.6162 31.6306 44.2351 31.7421 43.943C31.7685 43.8758 31.7892 43.7918 31.8243 43.7475C31.941 43.6004 32.2164 44.0074 32.5245 44.7795C33.4772 47.0487 34.784 49.3202 36.6059 51.1605C37.9241 52.5535 39.4959 53.7177 41.2184 54.5766L41.2121 54.595Z" fill="#2277F1"/>
<path fill-rule="evenodd" clip-rule="evenodd" d="M20.2814 44.7332L19.9186 44.6683C19.9054 44.6614 19.8864 44.6545 19.876 44.6688L19.3661 45.1955C18.9332 45.5577 18.5054 45.9245 18.0311 46.2182C17.7011 46.458 17.3504 46.658 16.9986 46.8564C15.7361 47.5164 14.3971 47.9729 13.0472 48.3351C12.4453 48.4886 11.8439 48.6513 11.2443 48.791C10.4756 48.9732 9.69949 49.1618 8.89864 49.1716C8.40306 49.1687 8.9521 48.3845 9.80643 48.2379C11.3501 47.97 12.8776 47.6228 14.3931 47.1732C15.2957 46.8938 16.192 46.4729 17.0112 45.9791C17.2458 45.8572 17.4626 45.7094 17.6787 45.5605C17.8949 45.4122 18.1208 45.2742 18.3146 45.0989C18.5112 44.9281 18.7262 44.7735 18.9108 44.5895L19.5443 43.9232L19.6104 43.8542L19.7064 43.8697L19.8979 43.9013L20.1928 43.9508L20.6844 44.033C21.0121 44.0865 21.3398 44.1359 21.6675 44.179C22.6609 44.313 23.6636 44.4107 24.6473 44.3641C25.4113 44.3228 26.1432 44.1589 26.8549 43.9341L27.3195 43.7714C27.9001 43.5667 28.0979 43.5334 28.3003 43.6777C28.3457 43.7099 28.4014 43.7381 28.4359 43.7749C28.5515 43.8973 28.3606 44.1198 27.926 44.325C26.6428 44.9437 25.0698 45.1932 23.571 45.1219C22.4545 45.0759 21.3593 44.9235 20.2796 44.7522L20.2814 44.7332Z" fill="#2277F1"/>
<path fill-rule="evenodd" clip-rule="evenodd" d="M49.3749 11.3074C49.3985 11.0573 49.6193 10.8745 49.8688 10.8975C51.106 11.013 49.2531 12.6067 49.3749 11.3074Z" stroke="#2277F1" stroke-width="0.6"/>
<path fill-rule="evenodd" clip-rule="evenodd" d="M24.3807 52.1311C24.4043 51.8816 24.6257 51.6982 24.8752 51.7218C26.1124 51.8367 24.2594 53.4304 24.3807 52.1311Z" stroke="#2277F1" stroke-width="0.6"/>
<path fill-rule="evenodd" clip-rule="evenodd" d="M61.5389 9.17416C61.7367 9.2512 61.835 9.47369 61.7579 9.67204C61.3768 10.6523 60.5092 8.77345 61.5389 9.17416" fill="#2277F1"/>
</svg>
