<svg width="16" height="16" viewBox="0 0 16 16" fill="none" xmlns="http://www.w3.org/2000/svg">
<path d="M3.70701 8.00391L6.38901 5.32191C6.47759 5.23372 6.52993 5.11555 6.53571 4.99068C6.54149 4.86582 6.50029 4.74332 6.42023 4.64732C6.34017 4.55133 6.22706 4.4888 6.10319 4.47207C5.97932 4.45533 5.85367 4.4856 5.75101 4.55691L5.68201 4.61391L2.11601 8.18391L2.06601 8.25391L2.03901 8.30991L2.01601 8.37791L2.01101 8.39791C2.00349 8.43307 1.9998 8.46895 2.00001 8.50491L2.00501 8.43091L2.00201 8.46191V8.54691L2.01701 8.63291L2.03701 8.69591L2.07701 8.77191L2.13201 8.84191L5.68201 12.3939C5.7702 12.4825 5.88837 12.5348 6.01323 12.5406C6.1381 12.5464 6.2606 12.5052 6.35659 12.4251C6.45259 12.3451 6.51511 12.232 6.53185 12.1081C6.54858 11.9842 6.51832 11.8586 6.44701 11.7559L6.38901 11.6859L3.70701 9.00591L8.00001 9.00291C11.522 9.00291 13.885 7.02691 13.996 4.20991L14 4.00391C14 3.8713 13.9473 3.74412 13.8536 3.65035C13.7598 3.55658 13.6326 3.50391 13.5 3.50391C13.3674 3.50391 13.2402 3.55658 13.1465 3.65035C13.0527 3.74412 13 3.8713 13 4.00391C13 6.27691 11.193 7.90791 8.26201 7.99891L8.00001 8.00391H3.70701L6.38901 5.32191L3.70701 8.00391V8.00391Z" fill="#003343"/>
</svg>
