<svg width="14" height="14" viewBox="0 0 14 14" fill="none" xmlns="http://www.w3.org/2000/svg">
<path d="M10.2812 9.07812C9.8916 9.07812 9.53203 9.21484 9.25039 9.44316L6.41758 7.39375C6.46501 7.13339 6.46501 6.86661 6.41758 6.60625L9.25039 4.55684C9.53203 4.78516 9.8916 4.92188 10.2812 4.92188C11.1863 4.92188 11.9219 4.18633 11.9219 3.28125C11.9219 2.37617 11.1863 1.64062 10.2812 1.64062C9.37617 1.64062 8.64062 2.37617 8.64062 3.28125C8.64062 3.43984 8.6625 3.5916 8.70488 3.73652L6.01426 5.68477C5.61504 5.15566 4.98066 4.8125 4.26562 4.8125C3.05703 4.8125 2.07812 5.79141 2.07812 7C2.07812 8.20859 3.05703 9.1875 4.26562 9.1875C4.98066 9.1875 5.61504 8.84434 6.01426 8.31523L8.70488 10.2635C8.6625 10.4084 8.64062 10.5615 8.64062 10.7188C8.64062 11.6238 9.37617 12.3594 10.2812 12.3594C11.1863 12.3594 11.9219 11.6238 11.9219 10.7188C11.9219 9.81367 11.1863 9.07812 10.2812 9.07812ZM10.2812 2.57031C10.6736 2.57031 10.9922 2.88887 10.9922 3.28125C10.9922 3.67363 10.6736 3.99219 10.2812 3.99219C9.88887 3.99219 9.57031 3.67363 9.57031 3.28125C9.57031 2.88887 9.88887 2.57031 10.2812 2.57031ZM4.26562 8.20312C3.60254 8.20312 3.0625 7.66309 3.0625 7C3.0625 6.33691 3.60254 5.79688 4.26562 5.79688C4.92871 5.79688 5.46875 6.33691 5.46875 7C5.46875 7.66309 4.92871 8.20312 4.26562 8.20312ZM10.2812 11.4297C9.88887 11.4297 9.57031 11.1111 9.57031 10.7188C9.57031 10.3264 9.88887 10.0078 10.2812 10.0078C10.6736 10.0078 10.9922 10.3264 10.9922 10.7188C10.9922 11.1111 10.6736 11.4297 10.2812 11.4297Z" fill="#333333"/>
</svg>
