<svg width="16" height="16" viewBox="0 0 16 16" fill="none" xmlns="http://www.w3.org/2000/svg">
<path d="M8.03478 1.92321C8.24478 1.40321 8.82978 0.843211 9.58078 1.05221C10.1708 1.21621 10.5538 1.57221 10.7738 2.04821C10.9778 2.49121 11.0278 3.01321 11.0378 3.51021C11.0478 4.04521 10.9358 4.68621 10.8048 5.24821C10.7463 5.49655 10.6813 5.7433 10.6098 5.98821H11.9948C12.3055 5.98823 12.612 6.06066 12.8899 6.19975C13.1677 6.33884 13.4094 6.54076 13.5956 6.78951C13.7819 7.03826 13.9076 7.32698 13.9628 7.63278C14.018 7.93857 14.0013 8.25303 13.9138 8.55121L12.5498 13.1972C12.4562 13.516 12.3 13.813 12.0903 14.0708C11.8806 14.3285 11.6217 14.5419 11.3286 14.6984C11.0355 14.8549 10.7141 14.9514 10.3833 14.9823C10.0524 15.0132 9.71878 14.9778 9.40178 14.8782L4.04578 13.1962C3.75603 13.1052 3.4908 12.9494 3.27024 12.7406C3.04967 12.5318 2.87955 12.2755 2.77278 11.9912L2.25278 10.6072C2.08729 10.1667 2.0824 9.68203 2.23896 9.23832C2.39552 8.7946 2.70352 8.42029 3.10878 8.18121L4.98078 7.07721C5.16942 6.92802 5.34444 6.76237 5.50378 6.58221C5.84778 6.19321 6.32078 5.54621 6.79578 4.53721C7.00078 4.10121 7.17278 3.75821 7.32878 3.44721C7.58178 2.94421 7.79378 2.52321 8.03478 1.92321Z" fill="#D30000"/>
</svg>
