<svg width="16" height="16" viewBox="0 0 16 16" fill="none" xmlns="http://www.w3.org/2000/svg">
<path d="M8.03478 1.92321C8.24478 1.40321 8.82978 0.843211 9.58078 1.05221C10.1708 1.21621 10.5538 1.57221 10.7738 2.04821C10.9778 2.49121 11.0278 3.01321 11.0378 3.51021C11.0478 4.04521 10.9358 4.68621 10.8048 5.24821C10.7463 5.49655 10.6813 5.7433 10.6098 5.98821H11.9948C12.3055 5.98823 12.612 6.06066 12.8899 6.19975C13.1677 6.33884 13.4094 6.54076 13.5956 6.78951C13.7819 7.03826 13.9076 7.32698 13.9628 7.63278C14.018 7.93857 14.0013 8.25303 13.9138 8.55121L12.5498 13.1972C12.4562 13.516 12.3 13.813 12.0903 14.0708C11.8806 14.3285 11.6217 14.5419 11.3286 14.6984C11.0355 14.8549 10.7141 14.9514 10.3833 14.9823C10.0524 15.0132 9.71878 14.9778 9.40178 14.8782L4.04578 13.1962C3.75603 13.1052 3.4908 12.9494 3.27024 12.7406C3.04967 12.5318 2.87955 12.2755 2.77278 11.9912L2.25278 10.6072C2.08729 10.1667 2.0824 9.68203 2.23896 9.23832C2.39552 8.7946 2.70352 8.42029 3.10878 8.18121L4.98078 7.07721C5.16942 6.92802 5.34444 6.76237 5.50378 6.58221C5.84778 6.19321 6.32078 5.54621 6.79578 4.53721C7.00078 4.10121 7.17278 3.75821 7.32878 3.44721C7.58178 2.94421 7.79378 2.52321 8.03478 1.92321V1.92321ZM5.51878 7.92021C5.51318 7.92365 5.50751 7.92699 5.50178 7.93021L3.61678 9.04221C3.41415 9.16175 3.26015 9.34891 3.18187 9.57076C3.10359 9.79262 3.10604 10.035 3.18878 10.2552L3.70878 11.6392C3.76215 11.7815 3.84726 11.9098 3.95764 12.0143C4.06802 12.1188 4.20076 12.1967 4.34578 12.2422L9.69978 13.9242C9.89002 13.9842 10.0903 14.0055 10.2889 13.9872C10.4875 13.9688 10.6805 13.9109 10.8564 13.8171C11.0324 13.7232 11.1879 13.5952 11.3139 13.4405C11.4398 13.2858 11.5336 13.1076 11.5898 12.9162L12.9528 8.27021C12.9966 8.12105 13.0051 7.96372 12.9775 7.81072C12.9499 7.65772 12.887 7.51326 12.7938 7.38881C12.7006 7.26436 12.5797 7.16336 12.4407 7.09382C12.3016 7.02428 12.1483 6.98812 11.9928 6.98821H9.92678C9.84678 6.98817 9.76797 6.96893 9.69695 6.93211C9.62593 6.89529 9.56478 6.84197 9.51863 6.77663C9.47249 6.71128 9.4427 6.63582 9.43176 6.55657C9.42082 6.47733 9.42906 6.39661 9.45578 6.32121C9.55578 6.03921 9.70778 5.55021 9.83178 5.01921C9.95778 4.48121 10.0468 3.93721 10.0388 3.52921C10.0288 3.06121 9.97978 2.71321 9.86578 2.46721C9.76778 2.25221 9.61478 2.09921 9.31378 2.01521C9.27078 2.00321 9.21978 2.00721 9.15378 2.05021C9.06762 2.11173 9.00153 2.1973 8.96378 2.29621C8.73343 2.85764 8.47818 3.40851 8.19878 3.94721C8.04378 4.25621 7.88078 4.58121 7.70178 4.96221C7.18778 6.05621 6.66178 6.78421 6.25178 7.24521C6.04778 7.47521 5.87378 7.63821 5.74578 7.74721C5.68077 7.80247 5.61337 7.85485 5.54378 7.90421L5.52778 7.91421L5.52278 7.91821L5.51978 7.92021H5.51878ZM4.97578 7.08021L4.97478 7.08121L4.97578 7.08021Z" fill="#003343"/>
</svg>
